<?xml version="1.0" encoding="utf-8"?>
<!-- Generator: Adobe Illustrator 22.1.0, SVG Export Plug-In . SVG Version: 6.00 Build 0)  -->
<svg version="1.1" id="Calque_1" xmlns="http://www.w3.org/2000/svg" xmlns:xlink="http://www.w3.org/1999/xlink" x="0px" y="0px"
	 viewBox="0 0 607.1 213.2" style="enable-background:new 0 0 607.1 213.2;" xml:space="preserve">
<style type="text/css">
	.st0{fill:#E2001A;}
	.st1{fill:#FFFFFF;}
	.st2{fill:#4B4B4B;}
</style>
<path class="st0" d="M288.2,108.5l9.3-9.4l9.3,9.4l-9.3,9.4L288.2,108.5z M282.2,133.5l-12.1-12.3c-1.5-1.6-4-1.6-5.5,0l-12.1,12.2
	l-9.9-10l12.1-12.2c1.5-1.6,1.5-4.1,0-5.6l-12.1-12.2l9.9-10l12.1,12.2c0.8,0.8,1.8,1.2,2.8,1.2c1,0,2-0.4,2.8-1.2l12.1-12.2l9.9,10
	l-12.1,12.2c-1.5,1.6-1.5,4.1,0,5.6l12.1,12.3C292,123.5,282.2,133.5,282.2,133.5z M267.3,148.6l-9.3-9.5l9.3-9.5l9.3,9.5
	L267.3,148.6z M227.8,108.5l9.3-9.4l9.3,9.4l-9.3,9.4L227.8,108.5z M267.3,68.4l9.3,9.4l-9.3,9.4l-9.3-9.4L267.3,68.4L267.3,68.4z
	 M317.5,108.5L330.8,95c1.5-1.6,1.5-4,0-5.6c-1.5-1.6-4-1.6-5.5,0l-13.1,13.3l-9.1-9.3l13-13.1c1.5-1.6,1.5-4.1,0-5.6
	c-1.5-1.6-4-1.6-5.5,0l-13,13.1l-9.9-10l13-13.2c1.5-1.5,1.5-4,0-5.6c-1.5-1.5-4-1.5-5.5,0l-13,13.2L273,63l13.1-13.3
	c1.5-1.6,1.5-4.1,0-5.6c-1.5-1.5-4-1.5-5.5,0l-13.3,13.5L254,44c-1.5-1.5-4-1.5-5.5,0c-1.5,1.6-1.5,4,0,5.6L261.6,63l-9.1,9.3
	l-13-13.2c-1.5-1.5-4-1.5-5.5,0c-1.5,1.6-1.5,4.1,0,5.6l13,13.2l-9.9,10l-13-13.2c-1.5-1.6-4-1.6-5.5,0c-1.5,1.6-1.5,4.1,0,5.6
	l13,13.1l-9.1,9.3l-13.1-13.3c-1.5-1.6-4-1.6-5.5,0c-1.5,1.5-1.5,4,0,5.6l13.3,13.5L203.8,122c-1.5,1.5-1.5,4,0,5.6
	c0.8,0.8,1.8,1.2,2.8,1.2c1,0,2-0.4,2.8-1.2l13.1-13.3l9.1,9.2l-12.9,13.1c-1.5,1.6-1.5,4,0,5.6c0.8,0.8,1.8,1.2,2.8,1.2
	c1,0,2-0.4,2.8-1.2l12.9-13.1l9.9,10L234,152.3c-1.5,1.6-1.5,4.1,0,5.6c1.5,1.6,4,1.6,5.5,0l12.9-13.1l9.1,9.2l-13.1,13.3
	c-1.5,1.6-1.5,4.1,0,5.6c1.5,1.6,4,1.6,5.5,0l13.3-13.5l13.3,13.5c0.8,0.8,1.8,1.2,2.8,1.2c1,0,2-0.4,2.8-1.2c1.5-1.6,1.5-4.1,0-5.6
	L273,154l9.1-9.2l12.9,13.1c0.8,0.8,1.8,1.2,2.8,1.2c1,0,2-0.4,2.8-1.2c1.5-1.6,1.5-4.1,0-5.6l-12.9-13.1l9.9-10l12.9,13.1
	c0.8,0.8,1.8,1.2,2.8,1.2s2-0.4,2.8-1.2c1.5-1.6,1.5-4,0-5.6l-12.9-13.1l9.1-9.2l13.1,13.3c0.8,0.8,1.8,1.2,2.8,1.2
	c1,0,2-0.4,2.8-1.2c1.5-1.5,1.5-4,0-5.6L317.5,108.5L317.5,108.5z"/>
<rect x="35.6" y="35.6" class="st0" width="142.1" height="142.1"/>
<path class="st1" d="M62.2,89.7h-9.4c0.4,1.7,1.6,2.6,3.3,2.6c1.3,0,2.2-0.4,3.3-1.4l2.2,1.9c-1.3,1.6-3.1,2.5-5.5,2.5
	c-4,0-7-2.8-7-7v0c0-3.8,2.7-7,6.7-7c4.5,0,6.6,3.5,6.6,7.3v0.1C62.3,89.1,62.3,89.3,62.2,89.7z M55.7,84.4c-1.6,0-2.6,1.1-2.9,2.9
	h5.8C58.3,85.6,57.3,84.4,55.7,84.4z"/>
<path class="st1" d="M81.9,95.1v-7.5c0-1.8-0.8-2.7-2.2-2.7s-2.3,0.9-2.3,2.7v7.5h-3.8v-7.5c0-1.8-0.8-2.7-2.2-2.7
	c-1.4,0-2.3,0.9-2.3,2.7v7.5h-3.8V81.6H69v1.9c0.9-1.1,2-2.2,4-2.2c1.8,0,3.1,0.8,3.8,2.1c1.2-1.4,2.6-2.1,4.4-2.1
	c2.8,0,4.6,1.7,4.6,5v8.8H81.9z"/>
<path class="st1" d="M49.9,118.1V99.7h3.8v18.4H49.9z"/>
<path class="st1" d="M65,118.4c-1,2.7-2.1,3.8-4.4,3.8c-1.4,0-2.4-0.4-3.4-0.9l1.3-2.8c0.5,0.3,1.1,0.5,1.6,0.5c0.7,0,1-0.2,1.3-0.9
	l-5.3-13.5h4l3.1,9.2l2.9-9.2h4L65,118.4z"/>
<path class="st1" d="M78.3,118.4c-4.2,0-7.3-3.1-7.3-7v0c0-3.9,3.1-7,7.3-7c4.2,0,7.3,3.1,7.3,7v0.1
	C85.6,115.2,82.5,118.4,78.3,118.4z M81.8,111.3c0-2-1.4-3.7-3.5-3.7c-2.2,0-3.5,1.7-3.5,3.7v0.1c0,2,1.4,3.7,3.5,3.7
	C80.5,115.1,81.8,113.4,81.8,111.3L81.8,111.3z"/>
<path class="st1" d="M96.9,118.1v-7.5c0-1.8-0.9-2.7-2.3-2.7c-1.5,0-2.4,0.9-2.4,2.7v7.5h-3.8v-13.5h3.8v1.9c0.9-1.1,2-2.2,3.9-2.2
	c2.9,0,4.6,1.9,4.6,5v8.7H96.9z"/>
<path class="st1" d="M57.1,141.3c-2.4,0-4-1.3-5-2.8v2.5h-1.9v-18.4h1.9v8c1.1-1.6,2.6-2.9,5-2.9c3.1,0,6.2,2.5,6.2,6.8
	C63.3,138.8,60.2,141.3,57.1,141.3z M56.7,129.5c-2.4,0-4.7,2-4.7,5c0,3,2.3,5.1,4.7,5.1c2.5,0,4.6-1.9,4.6-5
	C61.3,131.4,59.2,129.5,56.7,129.5z"/>
<path class="st1" d="M76.1,128H78v13h-1.9v-2.3c-0.9,1.4-2.2,2.5-4.5,2.5c-3.1,0-5-2.1-5-5.2V128h1.9v7.6c0,2.4,1.3,3.9,3.6,3.9
	c2.2,0,3.9-1.6,3.9-4.1V128z"/>
<path class="st1" d="M86.7,141.3c-1.9,0-3.9-0.7-5.4-1.9l1-1.4c1.4,1.1,3,1.7,4.5,1.7c1.6,0,2.7-0.8,2.7-2.1v0
	c0-1.3-1.5-1.8-3.2-2.3c-2-0.6-4.3-1.3-4.3-3.7v-0.1c0-2.2,1.9-3.7,4.4-3.7c1.6,0,3.3,0.6,4.7,1.4l-0.9,1.5
	c-1.2-0.8-2.6-1.3-3.8-1.3c-1.5,0-2.5,0.8-2.5,1.9v0.1c0,1.2,1.6,1.7,3.3,2.2c2,0.6,4.2,1.4,4.2,3.7v0.1
	C91.3,139.8,89.3,141.3,86.7,141.3z"/>
<path class="st1" d="M94.9,125.2V123h2.2v2.1H94.9z M95.1,141v-13H97v13H95.1z"/>
<path class="st1" d="M103.4,141h-1.9v-13h1.9v2.3c0.9-1.4,2.2-2.5,4.5-2.5c3.1,0,5,2.1,5,5.2v8.1h-1.9v-7.6c0-2.4-1.3-3.9-3.6-3.9
	c-2.2,0-3.9,1.6-3.9,4.1V141z"/>
<path class="st1" d="M122.7,139.6c1.8,0,3-0.7,4.1-1.8l1.2,1.1c-1.3,1.5-2.9,2.4-5.4,2.4c-3.6,0-6.5-2.7-6.5-6.8
	c0-3.8,2.6-6.8,6.2-6.8c3.8,0,6.1,3.1,6.1,6.9c0,0.2,0,0.4,0,0.6h-10.3C118.4,138,120.5,139.6,122.7,139.6z M126.5,133.8
	c-0.2-2.4-1.6-4.4-4.1-4.4c-2.3,0-4,1.9-4.2,4.4H126.5z"/>
<path class="st1" d="M136.2,141.3c-1.9,0-3.9-0.7-5.4-1.9l1-1.4c1.4,1.1,3,1.7,4.5,1.7c1.6,0,2.7-0.8,2.7-2.1v0
	c0-1.3-1.5-1.8-3.2-2.3c-2-0.6-4.3-1.3-4.3-3.7v-0.1c0-2.2,1.9-3.7,4.4-3.7c1.6,0,3.3,0.6,4.7,1.4l-0.9,1.5
	c-1.2-0.8-2.6-1.3-3.8-1.3c-1.5,0-2.5,0.8-2.5,1.9v0.1c0,1.2,1.6,1.7,3.3,2.2c2,0.6,4.2,1.4,4.2,3.7v0.1
	C140.8,139.8,138.8,141.3,136.2,141.3z"/>
<path class="st1" d="M148.2,141.3c-1.9,0-3.9-0.7-5.4-1.9l1-1.4c1.4,1.1,3,1.7,4.5,1.7c1.6,0,2.7-0.8,2.7-2.1v0
	c0-1.3-1.5-1.8-3.2-2.3c-2-0.6-4.3-1.3-4.3-3.7v-0.1c0-2.2,1.9-3.7,4.4-3.7c1.6,0,3.3,0.6,4.7,1.4l-0.9,1.5
	c-1.2-0.8-2.6-1.3-3.8-1.3c-1.5,0-2.5,0.8-2.5,1.9v0.1c0,1.2,1.6,1.7,3.3,2.2c2,0.6,4.2,1.4,4.2,3.7v0.1
	C152.8,139.8,150.8,141.3,148.2,141.3z"/>
<path class="st1" d="M54.5,164.2c-1.9,0-3.9-0.7-5.4-1.9l1-1.4c1.4,1.1,3,1.7,4.5,1.7c1.6,0,2.7-0.8,2.7-2.1v0
	c0-1.3-1.5-1.8-3.2-2.3c-2-0.6-4.3-1.3-4.3-3.7v-0.1c0-2.2,1.9-3.7,4.4-3.7c1.6,0,3.3,0.6,4.7,1.4l-0.9,1.5
	c-1.2-0.8-2.6-1.3-3.8-1.3c-1.5,0-2.5,0.8-2.5,1.9v0.1c0,1.2,1.6,1.7,3.3,2.2c2,0.6,4.2,1.4,4.2,3.7v0.1
	C59.1,162.8,57.1,164.2,54.5,164.2z"/>
<path class="st1" d="M68.6,164.3c-3.8,0-6.7-3.1-6.7-6.8c0-3.7,2.9-6.8,6.7-6.8c2.5,0,4,1,5.2,2.3l-1.3,1.4c-1-1.1-2.2-2-3.9-2
	c-2.6,0-4.7,2.2-4.7,5.1c0,2.8,2.1,5.1,4.8,5.1c1.7,0,2.9-0.8,4-1.9l1.2,1.2C72.6,163.2,71,164.3,68.6,164.3z"/>
<path class="st1" d="M79,164h-1.9v-18.4H79v7.6c0.9-1.4,2.2-2.5,4.5-2.5c3.1,0,5,2.1,5,5.2v8.1h-1.9v-7.6c0-2.4-1.3-3.9-3.6-3.9
	c-2.2,0-3.9,1.6-3.9,4.1V164z"/>
<path class="st1" d="M98.5,164.3c-3.9,0-6.7-3.1-6.7-6.8c0-3.7,2.9-6.8,6.8-6.8c3.9,0,6.8,3.1,6.8,6.8
	C105.3,161.1,102.4,164.3,98.5,164.3z M98.5,152.4c-2.8,0-4.8,2.2-4.8,5.1s2.1,5.1,4.8,5.1c2.8,0,4.8-2.2,4.8-5
	C103.3,154.7,101.2,152.4,98.5,152.4z"/>
<path class="st1" d="M114.7,164.3c-3.9,0-6.7-3.1-6.7-6.8c0-3.7,2.9-6.8,6.8-6.8c3.9,0,6.8,3.1,6.8,6.8
	C121.6,161.1,118.7,164.3,114.7,164.3z M114.7,152.4c-2.8,0-4.8,2.2-4.8,5.1s2.1,5.1,4.8,5.1c2.8,0,4.8-2.2,4.8-5
	C119.6,154.7,117.5,152.4,114.7,152.4z"/>
<path class="st1" d="M125.2,164v-18.4h1.9V164H125.2z"/>
<path class="st0" d="M380.6,63.1h7.4v4.4h-13V44.3h5.6V63.1z"/>
<path class="st0" d="M390.3,53.2c0.7-1.4,1.7-2.5,2.9-3.3c1.2-0.8,2.6-1.2,4.1-1.2c1.3,0,2.4,0.3,3.4,0.8c1,0.5,1.7,1.2,2.3,2.1
	v-2.6h5.6v18.4h-5.6v-2.6c-0.5,0.9-1.3,1.6-2.3,2.1c-1,0.5-2.1,0.8-3.4,0.8c-1.5,0-2.9-0.4-4.1-1.2c-1.2-0.8-2.2-1.9-2.9-3.3
	c-0.7-1.4-1.1-3.1-1.1-5C389.3,56.3,389.6,54.7,390.3,53.2z M401.9,54.9c-0.8-0.8-1.7-1.2-2.9-1.2s-2.1,0.4-2.9,1.2
	c-0.8,0.8-1.2,1.9-1.2,3.3c0,1.4,0.4,2.5,1.2,3.3c0.8,0.8,1.7,1.2,2.9,1.2s2.1-0.4,2.9-1.2c0.8-0.8,1.2-1.9,1.2-3.3
	S402.7,55.7,401.9,54.9z"/>
<path class="st0" d="M435.9,44.3v4.5h-6.1v18.6h-5.6V48.8H418v-4.5H435.9z"/>
<path class="st0" d="M441.9,66.6c-1.4-0.8-2.6-1.9-3.4-3.3c-0.8-1.4-1.2-3.1-1.2-5c0-1.9,0.4-3.6,1.3-5c0.8-1.4,2-2.5,3.4-3.3
	c1.5-0.8,3.1-1.2,4.9-1.2c1.8,0,3.4,0.4,4.9,1.2c1.5,0.8,2.6,1.9,3.4,3.3c0.8,1.4,1.3,3.1,1.3,5c0,1.9-0.4,3.6-1.3,5
	c-0.8,1.4-2,2.5-3.5,3.3c-1.5,0.8-3.1,1.2-4.9,1.2S443.4,67.4,441.9,66.6z M449.6,61.7c0.8-0.8,1.1-1.9,1.1-3.4s-0.4-2.6-1.1-3.4
	c-0.7-0.8-1.6-1.2-2.7-1.2c-1.1,0-2,0.4-2.7,1.2c-0.7,0.8-1.1,1.9-1.1,3.4c0,1.5,0.4,2.6,1.1,3.4s1.6,1.2,2.7,1.2
	S448.8,62.5,449.6,61.7z"/>
<path class="st0" d="M459.6,46.3c-0.6-0.6-0.9-1.3-0.9-2.2c0-0.9,0.3-1.6,0.9-2.2c0.6-0.6,1.4-0.9,2.4-0.9c1,0,1.8,0.3,2.4,0.9
	s0.9,1.3,0.9,2.2c0,0.9-0.3,1.6-0.9,2.2c-0.6,0.6-1.4,0.9-2.4,0.9C461,47.1,460.2,46.9,459.6,46.3z M464.8,49.1v18.4h-5.6V49.1
	H464.8z"/>
<path class="st0" d="M474.2,43.1v24.4h-5.6V43.1H474.2z"/>
<path class="st0" d="M495.3,59.6h-12.8c0.1,1.1,0.5,2,1.1,2.6c0.6,0.6,1.4,0.9,2.4,0.9c1.4,0,2.4-0.6,2.9-1.8h6
	c-0.3,1.2-0.9,2.3-1.7,3.3c-0.8,1-1.8,1.7-3,2.3c-1.2,0.6-2.6,0.8-4.1,0.8c-1.8,0-3.4-0.4-4.8-1.2c-1.4-0.8-2.5-1.9-3.3-3.3
	c-0.8-1.4-1.2-3.1-1.2-5s0.4-3.6,1.2-5c0.8-1.4,1.9-2.5,3.3-3.3c1.4-0.8,3-1.2,4.9-1.2c1.8,0,3.4,0.4,4.8,1.1
	c1.4,0.7,2.5,1.8,3.2,3.2c0.8,1.4,1.2,3,1.2,4.9C495.4,58.5,495.3,59,495.3,59.6z M489.6,56.5c0-1-0.3-1.7-1-2.3s-1.5-0.9-2.5-0.9
	c-0.9,0-1.7,0.3-2.4,0.8c-0.6,0.5-1.1,1.3-1.2,2.3H489.6z"/>
<path class="st2" d="M378.5,100.6h8.1v2.4h-11.1v-23h3V100.6z"/>
<path class="st2" d="M389.9,80.1h3.3l-3.2,7.5h-2.1L389.9,80.1z"/>
<path class="st2" d="M412.7,95.2h-14.5c0.1,1.8,0.7,3.2,1.8,4.2c1.1,1,2.5,1.5,4,1.5c1.3,0,2.4-0.3,3.2-0.9c0.9-0.6,1.5-1.4,1.8-2.4
	h3.2c-0.5,1.7-1.5,3.2-2.9,4.2c-1.5,1.1-3.3,1.6-5.4,1.6c-1.7,0-3.3-0.4-4.6-1.2c-1.4-0.8-2.4-1.9-3.2-3.3c-0.8-1.4-1.2-3.1-1.2-4.9
	c0-1.9,0.4-3.5,1.1-4.9c0.7-1.4,1.8-2.5,3.2-3.2c1.4-0.8,2.9-1.1,4.7-1.1c1.7,0,3.2,0.4,4.6,1.1s2.3,1.8,3.1,3.1
	c0.7,1.3,1.1,2.8,1.1,4.4C412.8,93.9,412.8,94.5,412.7,95.2z M409,89.8c-0.5-0.8-1.2-1.5-2.1-1.9s-1.8-0.6-2.9-0.6
	c-1.5,0-2.8,0.5-3.9,1.5c-1.1,1-1.7,2.3-1.8,4h11.4C409.7,91.6,409.5,90.6,409,89.8z M407.3,79.9l-7,3.8v-2.2l7-4.1V79.9z"/>
<path class="st2" d="M416.5,89.1c0.7-1.4,1.8-2.5,3.1-3.2c1.3-0.8,2.9-1.2,4.6-1.2c2.2,0,4.1,0.5,5.5,1.6c1.4,1.1,2.4,2.6,2.9,4.5
	h-3.2c-0.3-1.1-0.9-2-1.8-2.6c-0.9-0.6-2-1-3.3-1c-1.7,0-3.1,0.6-4.2,1.8c-1.1,1.2-1.6,2.8-1.6,5c0,2.2,0.5,3.9,1.6,5
	c1.1,1.2,2.4,1.8,4.2,1.8c1.3,0,2.4-0.3,3.3-0.9c0.9-0.6,1.5-1.5,1.8-2.6h3.2c-0.5,1.8-1.5,3.3-2.9,4.4c-1.5,1.1-3.3,1.7-5.4,1.7
	c-1.7,0-3.2-0.4-4.6-1.2c-1.3-0.8-2.4-1.9-3.1-3.3c-0.7-1.4-1.1-3.1-1.1-5C415.4,92.1,415.8,90.5,416.5,89.1z"/>
<path class="st2" d="M439.5,102.2c-1.4-0.8-2.5-1.9-3.2-3.3c-0.8-1.4-1.2-3.1-1.2-4.9c0-1.8,0.4-3.5,1.2-4.9
	c0.8-1.4,1.9-2.5,3.3-3.3s2.9-1.1,4.7-1.1c1.7,0,3.3,0.4,4.7,1.1s2.5,1.8,3.3,3.2c0.8,1.4,1.2,3,1.2,4.9c0,1.9-0.4,3.5-1.2,4.9
	c-0.8,1.4-1.9,2.5-3.3,3.3c-1.4,0.8-3,1.2-4.7,1.2C442.4,103.4,440.9,103,439.5,102.2z M447.2,100c0.9-0.5,1.7-1.3,2.3-2.3
	c0.6-1,0.9-2.2,0.9-3.7c0-1.5-0.3-2.7-0.9-3.7c-0.6-1-1.3-1.8-2.2-2.3s-1.9-0.7-3-0.7c-1.1,0-2.1,0.2-3,0.7
	c-0.9,0.5-1.6,1.2-2.2,2.3c-0.6,1-0.8,2.2-0.8,3.7c0,1.5,0.3,2.7,0.8,3.7c0.5,1,1.3,1.8,2.2,2.3c0.9,0.5,1.9,0.7,3,0.7
	S446.2,100.5,447.2,100z"/>
<path class="st2" d="M460.1,78.7v24.4h-3V78.7H460.1z"/>
<path class="st2" d="M481.3,95.2h-14.5c0.1,1.8,0.7,3.2,1.8,4.2c1.1,1,2.5,1.5,4,1.5c1.3,0,2.4-0.3,3.2-0.9c0.9-0.6,1.5-1.4,1.8-2.4
	h3.2c-0.5,1.7-1.5,3.2-2.9,4.2c-1.5,1.1-3.3,1.6-5.4,1.6c-1.7,0-3.3-0.4-4.6-1.2c-1.4-0.8-2.4-1.9-3.2-3.3c-0.8-1.4-1.2-3.1-1.2-4.9
	c0-1.9,0.4-3.5,1.1-4.9c0.7-1.4,1.8-2.5,3.2-3.2c1.4-0.8,2.9-1.1,4.7-1.1c1.7,0,3.2,0.4,4.6,1.1s2.3,1.8,3.1,3.1
	c0.7,1.3,1.1,2.8,1.1,4.4C481.4,93.9,481.3,94.5,481.3,95.2z M477.5,89.8c-0.5-0.8-1.2-1.5-2.1-1.9s-1.8-0.6-2.9-0.6
	c-1.5,0-2.8,0.5-3.9,1.5c-1.1,1-1.7,2.3-1.8,4h11.4C478.3,91.6,478,90.6,477.5,89.8z"/>
<path class="st2" d="M493.6,89.1c0.7-1.4,1.8-2.5,3.1-3.2c1.3-0.8,2.8-1.2,4.4-1.2c1.4,0,2.7,0.3,3.9,1c1.2,0.6,2.1,1.5,2.8,2.6
	v-9.6h3v24.4h-3v-3.4c-0.6,1.1-1.5,2-2.6,2.7s-2.5,1-4.1,1c-1.6,0-3.1-0.4-4.4-1.2c-1.3-0.8-2.3-1.9-3.1-3.3
	c-0.7-1.4-1.1-3.1-1.1-4.9C492.4,92.1,492.8,90.5,493.6,89.1z M506.9,90.4c-0.6-1-1.3-1.8-2.2-2.3c-0.9-0.5-2-0.8-3.1-0.8
	s-2.1,0.3-3.1,0.8c-0.9,0.5-1.7,1.3-2.2,2.3c-0.6,1-0.8,2.2-0.8,3.6c0,1.4,0.3,2.6,0.8,3.6c0.5,1,1.3,1.8,2.2,2.3
	c0.9,0.5,1.9,0.8,3.1,0.8s2.2-0.3,3.1-0.8c0.9-0.5,1.7-1.3,2.2-2.3c0.5-1,0.8-2.2,0.8-3.6C507.7,92.6,507.5,91.4,506.9,90.4z"/>
<path class="st2" d="M532,95.2h-14.5c0.1,1.8,0.7,3.2,1.8,4.2c1.1,1,2.5,1.5,4,1.5c1.3,0,2.4-0.3,3.2-0.9c0.9-0.6,1.5-1.4,1.8-2.4
	h3.2c-0.5,1.7-1.5,3.2-2.9,4.2c-1.5,1.1-3.3,1.6-5.4,1.6c-1.7,0-3.3-0.4-4.6-1.2c-1.4-0.8-2.4-1.9-3.2-3.3c-0.8-1.4-1.2-3.1-1.2-4.9
	c0-1.9,0.4-3.5,1.1-4.9c0.7-1.4,1.8-2.5,3.2-3.2c1.4-0.8,2.9-1.1,4.7-1.1c1.7,0,3.2,0.4,4.6,1.1s2.3,1.8,3.1,3.1
	c0.7,1.3,1.1,2.8,1.1,4.4C532.1,93.9,532,94.5,532,95.2z M528.2,89.8c-0.5-0.8-1.2-1.5-2.1-1.9s-1.8-0.6-2.9-0.6
	c-1.5,0-2.8,0.5-3.9,1.5c-1.1,1-1.7,2.3-1.8,4H529C529,91.6,528.7,90.6,528.2,89.8z"/>
<path class="st2" d="M547.2,78.7v24.4h-3V78.7H547.2z"/>
<path class="st2" d="M552.1,89.1c0.7-1.4,1.8-2.5,3.1-3.2c1.3-0.8,2.8-1.2,4.4-1.2c1.6,0,3,0.3,4.1,1s2,1.5,2.6,2.6V85h3v18.1h-3
	v-3.4c-0.6,1.1-1.5,1.9-2.7,2.6s-2.5,1-4.1,1c-1.6,0-3.1-0.4-4.4-1.2c-1.3-0.8-2.3-1.9-3.1-3.3c-0.7-1.4-1.1-3.1-1.1-4.9
	C550.9,92.1,551.3,90.5,552.1,89.1z M565.4,90.4c-0.6-1-1.3-1.8-2.2-2.3c-0.9-0.5-2-0.8-3.1-0.8s-2.1,0.3-3.1,0.8
	c-0.9,0.5-1.7,1.3-2.2,2.3c-0.6,1-0.8,2.2-0.8,3.6c0,1.4,0.3,2.6,0.8,3.6c0.5,1,1.3,1.8,2.2,2.3c0.9,0.5,1.9,0.8,3.1,0.8
	s2.2-0.3,3.1-0.8c0.9-0.5,1.7-1.3,2.2-2.3c0.5-1,0.8-2.2,0.8-3.6C566.3,92.6,566,91.4,565.4,90.4z"/>
<path class="st2" d="M375.5,124.7c0.7-1.4,1.8-2.5,3.1-3.3c1.3-0.8,2.8-1.2,4.4-1.2c1.6,0,2.9,0.3,4.1,1c1.2,0.7,2,1.5,2.6,2.6v-3.3
	h3v26.7h-3v-11.9c-0.6,1-1.5,1.9-2.6,2.6c-1.2,0.7-2.6,1.1-4.2,1.1s-3-0.4-4.3-1.2c-1.3-0.8-2.3-1.9-3.1-3.3
	c-0.7-1.4-1.1-3.1-1.1-4.9C374.3,127.7,374.7,126.1,375.5,124.7z M388.8,126c-0.6-1-1.3-1.8-2.2-2.3c-0.9-0.5-2-0.8-3.1-0.8
	s-2.1,0.3-3.1,0.8c-0.9,0.5-1.7,1.3-2.2,2.3c-0.6,1-0.8,2.2-0.8,3.6c0,1.4,0.3,2.6,0.8,3.6c0.5,1,1.3,1.8,2.2,2.3
	c0.9,0.5,1.9,0.8,3.1,0.8s2.2-0.3,3.1-0.8c0.9-0.5,1.7-1.3,2.2-2.3c0.5-1,0.8-2.2,0.8-3.6S389.4,127,388.8,126z"/>
<path class="st2" d="M413.5,120.6v18.1h-3V136c-0.6,0.9-1.4,1.6-2.4,2.2c-1,0.5-2.2,0.8-3.4,0.8c-1.4,0-2.7-0.3-3.8-0.9
	s-2-1.5-2.7-2.6c-0.6-1.2-1-2.6-1-4.3v-10.6h3v10.2c0,1.8,0.5,3.2,1.4,4.1c0.9,1,2.1,1.4,3.7,1.4c1.6,0,2.9-0.5,3.8-1.5
	c0.9-1,1.4-2.4,1.4-4.3v-9.9H413.5z"/>
<path class="st2" d="M418.3,124.7c0.7-1.4,1.8-2.5,3.1-3.3c1.3-0.8,2.8-1.2,4.4-1.2c1.6,0,3,0.3,4.1,1c1.2,0.7,2,1.5,2.6,2.6v-3.3h3
	v18.1h-3v-3.4c-0.6,1.1-1.5,1.9-2.7,2.6c-1.2,0.7-2.5,1-4.1,1c-1.6,0-3.1-0.4-4.4-1.2c-1.3-0.8-2.3-1.9-3.1-3.3
	c-0.7-1.4-1.1-3.1-1.1-4.9C417.2,127.7,417.5,126.1,418.3,124.7z M431.7,126c-0.6-1-1.3-1.8-2.2-2.3c-0.9-0.5-2-0.8-3.1-0.8
	s-2.1,0.3-3.1,0.8c-0.9,0.5-1.7,1.3-2.2,2.3c-0.6,1-0.8,2.2-0.8,3.6c0,1.4,0.3,2.6,0.8,3.6c0.5,1,1.3,1.8,2.2,2.3
	c0.9,0.5,1.9,0.8,3.1,0.8s2.2-0.3,3.1-0.8c0.9-0.5,1.7-1.3,2.2-2.3c0.5-1,0.8-2.2,0.8-3.6S432.2,127,431.7,126z"/>
<path class="st2" d="M443.3,114.3v24.4h-3v-24.4H443.3z"/>
<path class="st2" d="M448.2,117.1c-0.4-0.4-0.6-0.9-0.6-1.5c0-0.6,0.2-1.1,0.6-1.5c0.4-0.4,0.9-0.6,1.5-0.6c0.5,0,1,0.2,1.4,0.6
	c0.4,0.4,0.6,0.9,0.6,1.5c0,0.6-0.2,1.1-0.6,1.5c-0.4,0.4-0.9,0.6-1.4,0.6C449.1,117.7,448.6,117.5,448.2,117.1z M451.1,120.6v18.1
	h-3v-18.1H451.1z"/>
<path class="st2" d="M463.3,123.1h-3.8v15.6h-3v-15.6h-2.3v-2.5h2.3v-1.3c0-2,0.5-3.5,1.6-4.4c1-0.9,2.7-1.4,5-1.4v2.5
	c-1.3,0-2.2,0.3-2.8,0.8c-0.5,0.5-0.8,1.4-0.8,2.6v1.3h3.8V123.1z"/>
<path class="st2" d="M466.6,117.1c-0.4-0.4-0.6-0.9-0.6-1.5c0-0.6,0.2-1.1,0.6-1.5c0.4-0.4,0.9-0.6,1.5-0.6c0.5,0,1,0.2,1.4,0.6
	c0.4,0.4,0.6,0.9,0.6,1.5c0,0.6-0.2,1.1-0.6,1.5c-0.4,0.4-0.9,0.6-1.4,0.6C467.5,117.7,467,117.5,466.6,117.1z M469.5,120.6v18.1h-3
	v-18.1H469.5z"/>
<path class="st2" d="M474.3,124.7c0.7-1.4,1.8-2.5,3.1-3.3c1.3-0.8,2.9-1.2,4.6-1.2c2.2,0,4.1,0.5,5.5,1.6c1.4,1.1,2.4,2.6,2.9,4.5
	h-3.2c-0.3-1.1-0.9-2-1.8-2.6c-0.9-0.6-2-1-3.3-1c-1.7,0-3.1,0.6-4.2,1.8c-1.1,1.2-1.6,2.8-1.6,5c0,2.2,0.5,3.9,1.6,5
	c1.1,1.2,2.4,1.8,4.2,1.8c1.3,0,2.4-0.3,3.3-0.9c0.9-0.6,1.5-1.5,1.8-2.6h3.2c-0.5,1.8-1.5,3.3-2.9,4.4c-1.5,1.1-3.3,1.7-5.4,1.7
	c-1.7,0-3.2-0.4-4.6-1.2c-1.3-0.8-2.4-1.9-3.1-3.3s-1.1-3.1-1.1-5C473.2,127.7,473.6,126.1,474.3,124.7z"/>
<path class="st2" d="M494.1,124.7c0.7-1.4,1.8-2.5,3.1-3.3c1.3-0.8,2.8-1.2,4.4-1.2c1.6,0,3,0.3,4.1,1c1.2,0.7,2,1.5,2.6,2.6v-3.3h3
	v18.1h-3v-3.4c-0.6,1.1-1.5,1.9-2.7,2.6c-1.2,0.7-2.5,1-4.1,1c-1.6,0-3.1-0.4-4.4-1.2c-1.3-0.8-2.3-1.9-3.1-3.3
	c-0.7-1.4-1.1-3.1-1.1-4.9C492.9,127.7,493.3,126.1,494.1,124.7z M507.4,126c-0.6-1-1.3-1.8-2.2-2.3c-0.9-0.5-2-0.8-3.1-0.8
	s-2.1,0.3-3.1,0.8c-0.9,0.5-1.7,1.3-2.2,2.3c-0.6,1-0.8,2.2-0.8,3.6c0,1.4,0.3,2.6,0.8,3.6c0.5,1,1.3,1.8,2.2,2.3
	c0.9,0.5,1.9,0.8,3.1,0.8s2.2-0.3,3.1-0.8c0.9-0.5,1.7-1.3,2.2-2.3c0.5-1,0.8-2.2,0.8-3.6S508,127,507.4,126z"/>
<path class="st2" d="M519.7,123.1v10.7c0,0.9,0.2,1.5,0.6,1.9s1,0.5,1.9,0.5h2.2v2.5h-2.7c-1.7,0-2.9-0.4-3.8-1.2
	c-0.8-0.8-1.3-2-1.3-3.8v-10.7h-2.3v-2.5h2.3V116h3v4.6h4.7v2.5H519.7z"/>
<path class="st2" d="M527.9,117.1c-0.4-0.4-0.6-0.9-0.6-1.5c0-0.6,0.2-1.1,0.6-1.5c0.4-0.4,0.9-0.6,1.5-0.6c0.5,0,1,0.2,1.4,0.6
	c0.4,0.4,0.6,0.9,0.6,1.5c0,0.6-0.2,1.1-0.6,1.5c-0.4,0.4-0.9,0.6-1.4,0.6C528.8,117.7,528.3,117.5,527.9,117.1z M530.8,120.6v18.1
	h-3v-18.1H530.8z"/>
<path class="st2" d="M538.9,137.8c-1.4-0.8-2.5-1.9-3.2-3.3c-0.8-1.4-1.2-3.1-1.2-4.9c0-1.8,0.4-3.5,1.2-4.9
	c0.8-1.4,1.9-2.5,3.3-3.3c1.4-0.8,2.9-1.1,4.7-1.1c1.7,0,3.3,0.4,4.7,1.1c1.4,0.8,2.5,1.8,3.3,3.3c0.8,1.4,1.2,3,1.2,4.9
	s-0.4,3.5-1.2,4.9c-0.8,1.4-1.9,2.5-3.3,3.3c-1.4,0.8-3,1.2-4.7,1.2C541.8,139,540.3,138.6,538.9,137.8z M546.5,135.6
	c0.9-0.5,1.7-1.3,2.3-2.3c0.6-1,0.9-2.2,0.9-3.7s-0.3-2.7-0.9-3.7c-0.6-1-1.3-1.8-2.2-2.3c-0.9-0.5-1.9-0.7-3-0.7
	c-1.1,0-2.1,0.2-3,0.7c-0.9,0.5-1.6,1.2-2.2,2.3c-0.6,1-0.8,2.2-0.8,3.7c0,1.5,0.3,2.7,0.8,3.7c0.5,1,1.3,1.8,2.2,2.3
	c0.9,0.5,1.9,0.7,3,0.7S545.6,136.1,546.5,135.6z"/>
<path class="st2" d="M570.6,122.3c1.4,1.3,2,3.3,2,5.8v10.7h-3v-10.2c0-1.8-0.5-3.2-1.4-4.1s-2.1-1.4-3.7-1.4
	c-1.6,0-2.8,0.5-3.8,1.5c-0.9,1-1.4,2.4-1.4,4.3v10h-3v-18.1h3v2.6c0.6-0.9,1.4-1.6,2.4-2.1c1-0.5,2.2-0.8,3.4-0.8
	C567.4,120.3,569.2,120.9,570.6,122.3z"/>
<path class="st2" d="M389.6,157.9c1.4,1.3,2,3.3,2,5.8v10.7h-3V164c0-1.8-0.5-3.2-1.4-4.1s-2.1-1.4-3.7-1.4c-1.6,0-2.8,0.5-3.8,1.5
	c-0.9,1-1.4,2.4-1.4,4.3v10h-3v-18.1h3v2.6c0.6-0.9,1.4-1.6,2.4-2.1c1-0.5,2.2-0.8,3.4-0.8C386.5,155.9,388.2,156.5,389.6,157.9z"/>
<path class="st2" d="M412.3,156.2v18.1h-3v-2.7c-0.6,0.9-1.4,1.6-2.4,2.2c-1,0.5-2.2,0.8-3.4,0.8c-1.4,0-2.7-0.3-3.8-0.9
	s-2-1.5-2.7-2.6c-0.6-1.2-1-2.6-1-4.3v-10.6h3v10.2c0,1.8,0.5,3.2,1.4,4.1c0.9,1,2.1,1.4,3.7,1.4c1.6,0,2.9-0.5,3.8-1.5
	c0.9-1,1.4-2.4,1.4-4.3v-9.9H412.3z"/>
<path class="st2" d="M442.6,156.7c1.1,0.6,2,1.5,2.6,2.6c0.6,1.2,1,2.6,1,4.3v10.7h-3V164c0-1.8-0.4-3.2-1.3-4.1
	c-0.9-1-2.1-1.4-3.6-1.4c-1.6,0-2.8,0.5-3.7,1.5s-1.4,2.4-1.4,4.3v10h-3V164c0-1.8-0.4-3.2-1.3-4.1s-2.1-1.4-3.6-1.4
	c-1.6,0-2.8,0.5-3.7,1.5s-1.4,2.4-1.4,4.3v10h-3v-18.1h3v2.6c0.6-0.9,1.4-1.7,2.4-2.2c1-0.5,2.1-0.8,3.3-0.8c1.5,0,2.9,0.3,4,1
	c1.2,0.7,2,1.7,2.6,3c0.5-1.3,1.3-2.3,2.5-3s2.5-1.1,3.9-1.1C440.3,155.9,441.5,156.2,442.6,156.7z"/>
<path class="st2" d="M467.2,166.4h-14.5c0.1,1.8,0.7,3.2,1.8,4.2c1.1,1,2.5,1.5,4,1.5c1.3,0,2.4-0.3,3.2-0.9
	c0.9-0.6,1.5-1.4,1.8-2.4h3.2c-0.5,1.7-1.5,3.2-2.9,4.2c-1.5,1.1-3.3,1.6-5.4,1.6c-1.7,0-3.3-0.4-4.6-1.2c-1.4-0.8-2.4-1.9-3.2-3.3
	c-0.8-1.4-1.2-3.1-1.2-4.9s0.4-3.5,1.1-4.9c0.7-1.4,1.8-2.5,3.2-3.3c1.4-0.8,2.9-1.1,4.7-1.1c1.7,0,3.2,0.4,4.6,1.1s2.3,1.8,3.1,3.1
	c0.7,1.3,1.1,2.8,1.1,4.4C467.3,165.1,467.3,165.7,467.2,166.4z M463.4,161c-0.5-0.8-1.2-1.5-2.1-1.9c-0.9-0.4-1.8-0.6-2.9-0.6
	c-1.5,0-2.8,0.5-3.9,1.5c-1.1,1-1.7,2.3-1.8,4h11.4C464.2,162.8,463.9,161.8,463.4,161z M461.7,151.1l-7,3.8v-2.2l7-4.1V151.1z"/>
<path class="st2" d="M476.2,156.7c1-0.6,2.2-0.9,3.6-0.9v3.1H479c-3.4,0-5,1.8-5,5.5v9.8h-3v-18.1h3v2.9
	C474.5,158.1,475.2,157.3,476.2,156.7z"/>
<path class="st2" d="M483.1,152.7c-0.4-0.4-0.6-0.9-0.6-1.5c0-0.6,0.2-1.1,0.6-1.5c0.4-0.4,0.9-0.6,1.5-0.6c0.5,0,1,0.2,1.4,0.6
	c0.4,0.4,0.6,0.9,0.6,1.5c0,0.6-0.2,1.1-0.6,1.5c-0.4,0.4-0.9,0.6-1.4,0.6C483.9,153.3,483.5,153.1,483.1,152.7z M486,156.2v18.1h-3
	v-18.1H486z"/>
<path class="st2" d="M490.8,160.3c0.7-1.4,1.8-2.5,3.1-3.3c1.3-0.8,2.8-1.2,4.4-1.2c1.6,0,2.9,0.3,4.1,1c1.2,0.7,2,1.5,2.6,2.6v-3.3
	h3v26.7h-3v-11.9c-0.6,1-1.5,1.9-2.6,2.6c-1.2,0.7-2.6,1.1-4.2,1.1s-3-0.4-4.3-1.2c-1.3-0.8-2.3-1.9-3.1-3.3
	c-0.7-1.4-1.1-3.1-1.1-4.9C489.7,163.3,490,161.7,490.8,160.3z M504.2,161.6c-0.6-1-1.3-1.8-2.2-2.3c-0.9-0.5-2-0.8-3.1-0.8
	s-2.1,0.3-3.1,0.8c-0.9,0.5-1.7,1.3-2.2,2.3c-0.6,1-0.8,2.2-0.8,3.6c0,1.4,0.3,2.6,0.8,3.6c0.5,1,1.3,1.8,2.2,2.3
	c0.9,0.5,1.9,0.8,3.1,0.8s2.2-0.3,3.1-0.8c0.9-0.5,1.7-1.3,2.2-2.3c0.5-1,0.8-2.2,0.8-3.6S504.7,162.6,504.2,161.6z"/>
<path class="st2" d="M528.8,156.2v18.1h-3v-2.7c-0.6,0.9-1.4,1.6-2.4,2.2c-1,0.5-2.2,0.8-3.4,0.8c-1.4,0-2.7-0.3-3.8-0.9
	s-2-1.5-2.7-2.6c-0.6-1.2-1-2.6-1-4.3v-10.6h3v10.2c0,1.8,0.5,3.2,1.4,4.1c0.9,1,2.1,1.4,3.7,1.4c1.6,0,2.9-0.5,3.8-1.5
	c0.9-1,1.4-2.4,1.4-4.3v-9.9H528.8z"/>
<path class="st2" d="M550,166.4h-14.5c0.1,1.8,0.7,3.2,1.8,4.2c1.1,1,2.5,1.5,4,1.5c1.3,0,2.4-0.3,3.2-0.9c0.9-0.6,1.5-1.4,1.8-2.4
	h3.2c-0.5,1.7-1.5,3.2-2.9,4.2c-1.5,1.1-3.3,1.6-5.4,1.6c-1.7,0-3.3-0.4-4.6-1.2c-1.4-0.8-2.4-1.9-3.2-3.3c-0.8-1.4-1.2-3.1-1.2-4.9
	s0.4-3.5,1.1-4.9c0.7-1.4,1.8-2.5,3.2-3.3c1.4-0.8,2.9-1.1,4.7-1.1c1.7,0,3.2,0.4,4.6,1.1s2.3,1.8,3.1,3.1c0.7,1.3,1.1,2.8,1.1,4.4
	C550.1,165.1,550.1,165.7,550,166.4z M546.3,161c-0.5-0.8-1.2-1.5-2.1-1.9c-0.9-0.4-1.8-0.6-2.9-0.6c-1.5,0-2.8,0.5-3.9,1.5
	c-1.1,1-1.7,2.3-1.8,4H547C547,162.8,546.8,161.8,546.3,161z"/>
</svg>
