<?xml version="1.0" encoding="utf-8"?>
<!-- Generator: Adobe Illustrator 22.1.0, SVG Export Plug-In . SVG Version: 6.00 Build 0)  -->
<svg version="1.1" id="Calque_1" xmlns="http://www.w3.org/2000/svg" xmlns:xlink="http://www.w3.org/1999/xlink" x="0px" y="0px"
	 viewBox="0 0 606.7 212.7" style="enable-background:new 0 0 606.7 212.7;" xml:space="preserve">
<style type="text/css">
	.st0{fill:none;}
	.st1{fill:#E2001A;}
	.st2{fill:#4B4B4B;}
	.st3{fill:#FFFFFF;}
</style>
<g>
	<rect class="st0" width="606.7" height="212.7"/>
	<g>
		<path class="st1" d="M380.4,42.8v24.4h-5.6V42.8H380.4z"/>
		<path class="st1" d="M384.1,53c0.7-1.4,1.7-2.5,2.9-3.3c1.2-0.8,2.6-1.2,4.1-1.2c1.3,0,2.4,0.3,3.4,0.8c1,0.5,1.7,1.2,2.3,2.1
			v-2.6h5.6v18.4h-5.6v-2.6c-0.5,0.9-1.3,1.6-2.3,2.1c-1,0.5-2.1,0.8-3.4,0.8c-1.5,0-2.9-0.4-4.1-1.2c-1.2-0.8-2.2-1.9-2.9-3.3
			c-0.7-1.4-1.1-3.1-1.1-5C383.1,56.1,383.4,54.4,384.1,53z M395.7,54.7c-0.8-0.8-1.7-1.2-2.9-1.2s-2.1,0.4-2.9,1.2
			c-0.8,0.8-1.2,1.9-1.2,3.3c0,1.4,0.4,2.5,1.2,3.3c0.8,0.8,1.7,1.2,2.9,1.2s2.1-0.4,2.9-1.2c0.8-0.8,1.2-1.9,1.2-3.3
			C396.9,56.6,396.5,55.5,395.7,54.7z"/>
		<path class="st1" d="M423.3,62.5v4.8h-2.9c-2,0-3.6-0.5-4.8-1.5c-1.1-1-1.7-2.6-1.7-4.9v-7.3h-2.2v-4.7h2.2v-4.5h5.6v4.5h3.7v4.7
			h-3.7v7.4c0,0.6,0.1,0.9,0.4,1.2c0.3,0.2,0.7,0.4,1.3,0.4H423.3z"/>
		<path class="st1" d="M429.6,66.4c-1.4-0.8-2.6-1.9-3.4-3.3c-0.8-1.4-1.2-3.1-1.2-5c0-1.9,0.4-3.6,1.3-5c0.8-1.4,2-2.5,3.4-3.3
			c1.5-0.8,3.1-1.2,4.9-1.2c1.8,0,3.4,0.4,4.9,1.2c1.5,0.8,2.6,1.9,3.4,3.3c0.8,1.4,1.3,3.1,1.3,5c0,1.9-0.4,3.6-1.3,5
			c-0.8,1.4-2,2.5-3.5,3.3c-1.5,0.8-3.1,1.2-4.9,1.2S431,67.1,429.6,66.4z M437.2,61.4c0.8-0.8,1.1-1.9,1.1-3.4
			c0-1.5-0.4-2.6-1.1-3.4c-0.7-0.8-1.6-1.2-2.7-1.2c-1.1,0-2,0.4-2.7,1.2c-0.7,0.8-1.1,1.9-1.1,3.4c0,1.5,0.4,2.6,1.1,3.4
			s1.6,1.2,2.7,1.2S436.5,62.2,437.2,61.4z"/>
		<path class="st1" d="M447.2,46c-0.6-0.6-0.9-1.3-0.9-2.2c0-0.9,0.3-1.6,0.9-2.2c0.6-0.6,1.4-0.9,2.4-0.9c1,0,1.8,0.3,2.4,0.9
			c0.6,0.6,0.9,1.3,0.9,2.2c0,0.9-0.3,1.6-0.9,2.2c-0.6,0.6-1.4,0.9-2.4,0.9C448.7,46.9,447.9,46.6,447.2,46z M452.5,48.8v18.4h-5.6
			V48.8H452.5z"/>
		<path class="st1" d="M461.9,42.8v24.4h-5.6V42.8H461.9z"/>
		<path class="st1" d="M482.9,59.4h-12.8c0.1,1.1,0.5,2,1.1,2.6c0.6,0.6,1.4,0.9,2.4,0.9c1.4,0,2.4-0.6,2.9-1.8h6
			c-0.3,1.2-0.9,2.3-1.7,3.3c-0.8,1-1.8,1.7-3,2.3c-1.2,0.6-2.6,0.8-4.1,0.8c-1.8,0-3.4-0.4-4.8-1.2c-1.4-0.8-2.5-1.9-3.3-3.3
			c-0.8-1.4-1.2-3.1-1.2-5s0.4-3.6,1.2-5c0.8-1.4,1.9-2.5,3.3-3.3c1.4-0.8,3-1.2,4.9-1.2c1.8,0,3.4,0.4,4.8,1.1
			c1.4,0.7,2.5,1.8,3.2,3.2c0.8,1.4,1.2,3,1.2,4.9C483,58.3,483,58.8,482.9,59.4z M477.3,56.3c0-1-0.3-1.7-1-2.3
			c-0.7-0.6-1.5-0.9-2.5-0.9c-0.9,0-1.7,0.3-2.4,0.8c-0.6,0.6-1.1,1.3-1.2,2.3H477.3z"/>
		<path class="st2" d="M378.2,78.4v24.4h-3V78.4H378.2z"/>
		<path class="st2" d="M383.5,79.8h3.3l-3.2,7.5h-2.1L383.5,79.8z"/>
		<path class="st2" d="M406.4,94.9h-14.5c0.1,1.8,0.7,3.2,1.8,4.2c1.1,1,2.5,1.5,4,1.5c1.3,0,2.4-0.3,3.2-0.9s1.5-1.4,1.8-2.4h3.2
			c-0.5,1.7-1.5,3.2-2.9,4.2c-1.5,1.1-3.3,1.6-5.4,1.6c-1.7,0-3.3-0.4-4.6-1.2c-1.4-0.8-2.4-1.9-3.2-3.3c-0.8-1.4-1.2-3.1-1.2-4.9
			c0-1.9,0.4-3.5,1.1-4.9c0.7-1.4,1.8-2.5,3.2-3.3c1.4-0.8,2.9-1.1,4.7-1.1c1.7,0,3.2,0.4,4.6,1.1s2.3,1.8,3.1,3.1
			c0.7,1.3,1.1,2.8,1.1,4.4C406.5,93.7,406.5,94.3,406.4,94.9z M402.6,89.5c-0.5-0.8-1.2-1.5-2.1-1.9c-0.9-0.4-1.8-0.6-2.9-0.6
			c-1.5,0-2.8,0.5-3.9,1.5c-1.1,1-1.7,2.3-1.8,4h11.4C403.4,91.3,403.1,90.4,402.6,89.5z M400.9,79.6l-7,3.8v-2.2l7-4.1V79.6z"/>
		<path class="st2" d="M410.2,88.9c0.7-1.4,1.8-2.5,3.1-3.3c1.3-0.8,2.9-1.2,4.6-1.2c2.2,0,4.1,0.5,5.5,1.6c1.4,1.1,2.4,2.6,2.9,4.5
			H423c-0.3-1.1-0.9-2-1.8-2.6c-0.9-0.6-2-1-3.3-1c-1.7,0-3.1,0.6-4.2,1.8c-1.1,1.2-1.6,2.8-1.6,5c0,2.2,0.5,3.9,1.6,5
			c1.1,1.2,2.4,1.8,4.2,1.8c1.3,0,2.4-0.3,3.3-0.9c0.9-0.6,1.5-1.5,1.8-2.6h3.2c-0.5,1.8-1.5,3.3-2.9,4.4c-1.5,1.1-3.3,1.7-5.4,1.7
			c-1.7,0-3.2-0.4-4.6-1.2s-2.4-1.9-3.1-3.3c-0.7-1.4-1.1-3.1-1.1-5C409,91.9,409.4,90.3,410.2,88.9z"/>
		<path class="st2" d="M433.2,102c-1.4-0.8-2.5-1.9-3.2-3.3c-0.8-1.4-1.2-3.1-1.2-4.9c0-1.8,0.4-3.5,1.2-4.9
			c0.8-1.4,1.9-2.5,3.3-3.3c1.4-0.8,2.9-1.1,4.7-1.1c1.7,0,3.3,0.4,4.7,1.1c1.4,0.8,2.5,1.8,3.3,3.3c0.8,1.4,1.2,3,1.2,4.9
			c0,1.9-0.4,3.5-1.2,4.9c-0.8,1.4-1.9,2.5-3.3,3.3c-1.4,0.8-3,1.2-4.7,1.2C436.1,103.1,434.5,102.8,433.2,102z M440.8,99.7
			c0.9-0.5,1.7-1.3,2.3-2.3c0.6-1,0.9-2.2,0.9-3.7c0-1.5-0.3-2.7-0.9-3.7c-0.6-1-1.3-1.8-2.2-2.3c-0.9-0.5-1.9-0.7-3-0.7
			c-1.1,0-2.1,0.2-3,0.7c-0.9,0.5-1.6,1.2-2.2,2.3c-0.6,1-0.8,2.2-0.8,3.7c0,1.5,0.3,2.7,0.8,3.7c0.5,1,1.3,1.8,2.2,2.3
			c0.9,0.5,1.9,0.7,3,0.7S439.9,100.2,440.8,99.7z"/>
		<path class="st2" d="M453.7,78.4v24.4h-3V78.4H453.7z"/>
		<path class="st2" d="M474.9,94.9h-14.5c0.1,1.8,0.7,3.2,1.8,4.2c1.1,1,2.5,1.5,4,1.5c1.3,0,2.4-0.3,3.2-0.9s1.5-1.4,1.8-2.4h3.2
			c-0.5,1.7-1.5,3.2-2.9,4.2c-1.5,1.1-3.3,1.6-5.4,1.6c-1.7,0-3.3-0.4-4.6-1.2c-1.4-0.8-2.4-1.9-3.2-3.3c-0.8-1.4-1.2-3.1-1.2-4.9
			c0-1.9,0.4-3.5,1.1-4.9c0.7-1.4,1.8-2.5,3.2-3.3c1.4-0.8,2.9-1.1,4.7-1.1c1.7,0,3.2,0.4,4.6,1.1s2.3,1.8,3.1,3.1
			c0.7,1.3,1.1,2.8,1.1,4.4C475,93.7,475,94.3,474.9,94.9z M471.2,89.5c-0.5-0.8-1.2-1.5-2.1-1.9c-0.9-0.4-1.8-0.6-2.9-0.6
			c-1.5,0-2.8,0.5-3.9,1.5c-1.1,1-1.7,2.3-1.8,4h11.4C471.9,91.3,471.7,90.4,471.2,89.5z"/>
		<path class="st2" d="M487.2,88.9c0.7-1.4,1.8-2.5,3.1-3.3c1.3-0.8,2.8-1.2,4.4-1.2c1.4,0,2.7,0.3,3.9,1c1.2,0.6,2.1,1.5,2.8,2.6
			v-9.6h3v24.4h-3v-3.4c-0.6,1.1-1.5,2-2.6,2.7c-1.2,0.7-2.5,1-4.1,1c-1.6,0-3.1-0.4-4.4-1.2c-1.3-0.8-2.3-1.9-3.1-3.3
			c-0.7-1.4-1.1-3.1-1.1-4.9C486.1,91.9,486.5,90.3,487.2,88.9z M500.6,90.2c-0.6-1-1.3-1.8-2.2-2.3c-0.9-0.5-2-0.8-3.1-0.8
			s-2.1,0.3-3.1,0.8c-0.9,0.5-1.7,1.3-2.2,2.3c-0.6,1-0.8,2.2-0.8,3.6c0,1.4,0.3,2.6,0.8,3.6c0.5,1,1.3,1.8,2.2,2.3
			c0.9,0.5,1.9,0.8,3.1,0.8s2.2-0.3,3.1-0.8c0.9-0.5,1.7-1.3,2.2-2.3c0.5-1,0.8-2.2,0.8-3.6C501.4,92.4,501.1,91.2,500.6,90.2z"/>
		<path class="st2" d="M525.6,94.9h-14.5c0.1,1.8,0.7,3.2,1.8,4.2c1.1,1,2.5,1.5,4,1.5c1.3,0,2.4-0.3,3.2-0.9s1.5-1.4,1.8-2.4h3.2
			c-0.5,1.7-1.5,3.2-2.9,4.2c-1.5,1.1-3.3,1.6-5.4,1.6c-1.7,0-3.3-0.4-4.6-1.2c-1.4-0.8-2.4-1.9-3.2-3.3c-0.8-1.4-1.2-3.1-1.2-4.9
			c0-1.9,0.4-3.5,1.1-4.9c0.7-1.4,1.8-2.5,3.2-3.3c1.4-0.8,2.9-1.1,4.7-1.1c1.7,0,3.2,0.4,4.6,1.1s2.3,1.8,3.1,3.1
			c0.7,1.3,1.1,2.8,1.1,4.4C525.7,93.7,525.7,94.3,525.6,94.9z M521.9,89.5c-0.5-0.8-1.2-1.5-2.1-1.9c-0.9-0.4-1.8-0.6-2.9-0.6
			c-1.5,0-2.8,0.5-3.9,1.5c-1.1,1-1.7,2.3-1.8,4h11.4C522.6,91.3,522.4,90.4,521.9,89.5z"/>
		<path class="st2" d="M540.9,78.4v24.4h-3V78.4H540.9z"/>
		<path class="st2" d="M545.7,88.9c0.7-1.4,1.8-2.5,3.1-3.3c1.3-0.8,2.8-1.2,4.4-1.2c1.6,0,3,0.3,4.1,1c1.2,0.7,2,1.5,2.6,2.6v-3.3
			h3v18.1h-3v-3.4c-0.6,1.1-1.5,1.9-2.7,2.6c-1.2,0.7-2.5,1-4.1,1c-1.6,0-3.1-0.4-4.4-1.2c-1.3-0.8-2.3-1.9-3.1-3.3
			c-0.7-1.4-1.1-3.1-1.1-4.9C544.6,91.9,545,90.3,545.7,88.9z M559.1,90.2c-0.6-1-1.3-1.8-2.2-2.3c-0.9-0.5-2-0.8-3.1-0.8
			s-2.1,0.3-3.1,0.8c-0.9,0.5-1.7,1.3-2.2,2.3c-0.6,1-0.8,2.2-0.8,3.6c0,1.4,0.3,2.6,0.8,3.6c0.5,1,1.3,1.8,2.2,2.3
			c0.9,0.5,1.9,0.8,3.1,0.8s2.2-0.3,3.1-0.8c0.9-0.5,1.7-1.3,2.2-2.3c0.5-1,0.8-2.2,0.8-3.6C559.9,92.4,559.6,91.2,559.1,90.2z"/>
		<path class="st2" d="M375.2,124.5c0.7-1.4,1.8-2.5,3.1-3.3c1.3-0.8,2.8-1.2,4.4-1.2c1.6,0,2.9,0.3,4.1,1c1.2,0.7,2,1.5,2.6,2.6
			v-3.3h3V147h-3v-11.9c-0.6,1-1.5,1.9-2.6,2.6c-1.2,0.7-2.6,1.1-4.2,1.1s-3-0.4-4.3-1.2c-1.3-0.8-2.3-1.9-3.1-3.3
			c-0.7-1.4-1.1-3.1-1.1-4.9C374.1,127.5,374.5,125.9,375.2,124.5z M388.6,125.8c-0.6-1-1.3-1.8-2.2-2.3c-0.9-0.5-2-0.8-3.1-0.8
			s-2.1,0.3-3.1,0.8c-0.9,0.5-1.7,1.3-2.2,2.3c-0.6,1-0.8,2.2-0.8,3.6c0,1.4,0.3,2.6,0.8,3.6c0.5,1,1.3,1.8,2.2,2.3
			c0.9,0.5,1.9,0.8,3.1,0.8s2.2-0.3,3.1-0.8c0.9-0.5,1.7-1.3,2.2-2.3c0.5-1,0.8-2.2,0.8-3.6C389.4,128,389.2,126.8,388.6,125.8z"/>
		<path class="st2" d="M413.3,120.4v18.1h-3v-2.7c-0.6,0.9-1.4,1.6-2.4,2.2c-1,0.5-2.2,0.8-3.4,0.8c-1.4,0-2.7-0.3-3.8-0.9
			s-2-1.5-2.7-2.6c-0.6-1.2-1-2.6-1-4.3v-10.6h3v10.2c0,1.8,0.5,3.2,1.4,4.1c0.9,1,2.1,1.4,3.7,1.4c1.6,0,2.9-0.5,3.8-1.5
			c0.9-1,1.4-2.4,1.4-4.3v-9.9H413.3z"/>
		<path class="st2" d="M418.1,124.5c0.7-1.4,1.8-2.5,3.1-3.3c1.3-0.8,2.8-1.2,4.4-1.2c1.6,0,3,0.3,4.1,1c1.2,0.7,2,1.5,2.6,2.6v-3.3
			h3v18.1h-3v-3.4c-0.6,1.1-1.5,1.9-2.7,2.6c-1.2,0.7-2.5,1-4.1,1c-1.6,0-3.1-0.4-4.4-1.2c-1.3-0.8-2.3-1.9-3.1-3.3
			c-0.7-1.4-1.1-3.1-1.1-4.9C417,127.5,417.3,125.9,418.1,124.5z M431.4,125.8c-0.6-1-1.3-1.8-2.2-2.3c-0.9-0.5-2-0.8-3.1-0.8
			s-2.1,0.3-3.1,0.8c-0.9,0.5-1.7,1.3-2.2,2.3c-0.6,1-0.8,2.2-0.8,3.6c0,1.4,0.3,2.6,0.8,3.6c0.5,1,1.3,1.8,2.2,2.3
			c0.9,0.5,1.9,0.8,3.1,0.8s2.2-0.3,3.1-0.8c0.9-0.5,1.7-1.3,2.2-2.3c0.5-1,0.8-2.2,0.8-3.6C432.3,128,432,126.8,431.4,125.8z"/>
		<path class="st2" d="M443.1,114v24.4h-3V114H443.1z"/>
		<path class="st2" d="M448,116.8c-0.4-0.4-0.6-0.9-0.6-1.5c0-0.6,0.2-1.1,0.6-1.5c0.4-0.4,0.9-0.6,1.5-0.6c0.5,0,1,0.2,1.4,0.6
			s0.6,0.9,0.6,1.5c0,0.6-0.2,1.1-0.6,1.5s-0.9,0.6-1.4,0.6C448.9,117.4,448.4,117.2,448,116.8z M450.9,120.4v18.1h-3v-18.1H450.9z"
			/>
		<path class="st2" d="M463.1,122.8h-3.8v15.6h-3v-15.6h-2.3v-2.5h2.3v-1.3c0-2,0.5-3.5,1.6-4.4c1-0.9,2.7-1.4,5-1.4v2.5
			c-1.3,0-2.2,0.3-2.8,0.8c-0.5,0.5-0.8,1.4-0.8,2.6v1.3h3.8V122.8z"/>
		<path class="st2" d="M466.4,116.8c-0.4-0.4-0.6-0.9-0.6-1.5c0-0.6,0.2-1.1,0.6-1.5c0.4-0.4,0.9-0.6,1.5-0.6c0.5,0,1,0.2,1.4,0.6
			s0.6,0.9,0.6,1.5c0,0.6-0.2,1.1-0.6,1.5s-0.9,0.6-1.4,0.6C467.3,117.4,466.8,117.2,466.4,116.8z M469.3,120.4v18.1h-3v-18.1H469.3
			z"/>
		<path class="st2" d="M474.1,124.5c0.7-1.4,1.8-2.5,3.1-3.3c1.3-0.8,2.9-1.2,4.6-1.2c2.2,0,4.1,0.5,5.5,1.6
			c1.4,1.1,2.4,2.6,2.9,4.5h-3.2c-0.3-1.1-0.9-2-1.8-2.6c-0.9-0.6-2-1-3.3-1c-1.7,0-3.1,0.6-4.2,1.8c-1.1,1.2-1.6,2.8-1.6,5
			c0,2.2,0.5,3.9,1.6,5c1.1,1.2,2.4,1.8,4.2,1.8c1.3,0,2.4-0.3,3.3-0.9c0.9-0.6,1.5-1.5,1.8-2.6h3.2c-0.5,1.8-1.5,3.3-2.9,4.4
			c-1.5,1.1-3.3,1.7-5.4,1.7c-1.7,0-3.2-0.4-4.6-1.2s-2.4-1.9-3.1-3.3c-0.7-1.4-1.1-3.1-1.1-5C473,127.5,473.4,125.9,474.1,124.5z"
			/>
		<path class="st2" d="M493.8,124.5c0.7-1.4,1.8-2.5,3.1-3.3c1.3-0.8,2.8-1.2,4.4-1.2c1.6,0,3,0.3,4.1,1c1.2,0.7,2,1.5,2.6,2.6v-3.3
			h3v18.1h-3v-3.4c-0.6,1.1-1.5,1.9-2.7,2.6c-1.2,0.7-2.5,1-4.1,1c-1.6,0-3.1-0.4-4.4-1.2c-1.3-0.8-2.3-1.9-3.1-3.3
			c-0.7-1.4-1.1-3.1-1.1-4.9C492.7,127.5,493.1,125.9,493.8,124.5z M507.2,125.8c-0.6-1-1.3-1.8-2.2-2.3c-0.9-0.5-2-0.8-3.1-0.8
			s-2.1,0.3-3.1,0.8c-0.9,0.5-1.7,1.3-2.2,2.3c-0.6,1-0.8,2.2-0.8,3.6c0,1.4,0.3,2.6,0.8,3.6c0.5,1,1.3,1.8,2.2,2.3
			c0.9,0.5,1.9,0.8,3.1,0.8s2.2-0.3,3.1-0.8c0.9-0.5,1.7-1.3,2.2-2.3c0.5-1,0.8-2.2,0.8-3.6C508,128,507.8,126.8,507.2,125.8z"/>
		<path class="st2" d="M519.5,122.8v10.7c0,0.9,0.2,1.5,0.6,1.9c0.4,0.4,1,0.5,1.9,0.5h2.2v2.5h-2.7c-1.7,0-2.9-0.4-3.8-1.2
			s-1.3-2-1.3-3.8v-10.7h-2.3v-2.5h2.3v-4.6h3v4.6h4.7v2.5H519.5z"/>
		<path class="st2" d="M527.7,116.8c-0.4-0.4-0.6-0.9-0.6-1.5c0-0.6,0.2-1.1,0.6-1.5c0.4-0.4,0.9-0.6,1.5-0.6c0.5,0,1,0.2,1.4,0.6
			s0.6,0.9,0.6,1.5c0,0.6-0.2,1.1-0.6,1.5s-0.9,0.6-1.4,0.6C528.5,117.4,528.1,117.2,527.7,116.8z M530.6,120.4v18.1h-3v-18.1H530.6
			z"/>
		<path class="st2" d="M538.7,137.6c-1.4-0.8-2.5-1.9-3.2-3.3c-0.8-1.4-1.2-3.1-1.2-4.9c0-1.8,0.4-3.5,1.2-4.9
			c0.8-1.4,1.9-2.5,3.3-3.3c1.4-0.8,2.9-1.1,4.7-1.1c1.7,0,3.3,0.4,4.7,1.1c1.4,0.8,2.5,1.8,3.3,3.3c0.8,1.4,1.2,3,1.2,4.9
			c0,1.9-0.4,3.5-1.2,4.9c-0.8,1.4-1.9,2.5-3.3,3.3c-1.4,0.8-3,1.2-4.7,1.2C541.6,138.7,540,138.4,538.7,137.6z M546.3,135.3
			c0.9-0.5,1.7-1.3,2.3-2.3c0.6-1,0.9-2.2,0.9-3.7c0-1.5-0.3-2.7-0.9-3.7c-0.6-1-1.3-1.8-2.2-2.3c-0.9-0.5-1.9-0.7-3-0.7
			c-1.1,0-2.1,0.2-3,0.7c-0.9,0.5-1.6,1.2-2.2,2.3c-0.6,1-0.8,2.2-0.8,3.7c0,1.5,0.3,2.7,0.8,3.7c0.5,1,1.3,1.8,2.2,2.3
			c0.9,0.5,1.9,0.7,3,0.7S545.4,135.8,546.3,135.3z"/>
		<path class="st2" d="M570.4,122c1.4,1.3,2,3.3,2,5.8v10.7h-3v-10.2c0-1.8-0.5-3.2-1.4-4.1s-2.1-1.4-3.7-1.4
			c-1.6,0-2.8,0.5-3.8,1.5c-0.9,1-1.4,2.4-1.4,4.3v10h-3v-18.1h3v2.6c0.6-0.9,1.4-1.6,2.4-2.1c1-0.5,2.2-0.8,3.4-0.8
			C567.2,120,569,120.7,570.4,122z"/>
		<path class="st2" d="M389.4,157.6c1.4,1.3,2,3.3,2,5.8V174h-3v-10.2c0-1.8-0.5-3.2-1.4-4.1s-2.1-1.4-3.7-1.4
			c-1.6,0-2.8,0.5-3.8,1.5c-0.9,1-1.4,2.4-1.4,4.3v10h-3V156h3v2.6c0.6-0.9,1.4-1.6,2.4-2.1c1-0.5,2.2-0.8,3.4-0.8
			C386.3,155.6,388,156.3,389.4,157.6z"/>
		<path class="st2" d="M412.1,156V174h-3v-2.7c-0.6,0.9-1.4,1.6-2.4,2.2c-1,0.5-2.2,0.8-3.4,0.8c-1.4,0-2.7-0.3-3.8-0.9
			s-2-1.5-2.7-2.6c-0.6-1.2-1-2.6-1-4.3V156h3v10.2c0,1.8,0.5,3.2,1.4,4.1c0.9,1,2.1,1.4,3.7,1.4c1.6,0,2.9-0.5,3.8-1.5
			c0.9-1,1.4-2.4,1.4-4.3V156H412.1z"/>
		<path class="st2" d="M442.4,156.5c1.1,0.6,2,1.5,2.6,2.6c0.6,1.2,1,2.6,1,4.3V174h-3v-10.2c0-1.8-0.4-3.2-1.3-4.1
			c-0.9-1-2.1-1.4-3.6-1.4c-1.6,0-2.8,0.5-3.7,1.5c-0.9,1-1.4,2.4-1.4,4.3v10h-3v-10.2c0-1.8-0.4-3.2-1.3-4.1s-2.1-1.4-3.6-1.4
			c-1.6,0-2.8,0.5-3.7,1.5c-0.9,1-1.4,2.4-1.4,4.3v10h-3V156h3v2.6c0.6-0.9,1.4-1.7,2.4-2.2c1-0.5,2.1-0.8,3.3-0.8
			c1.5,0,2.9,0.3,4,1c1.2,0.7,2,1.7,2.6,3c0.5-1.3,1.3-2.3,2.5-3s2.5-1.1,3.9-1.1C440,155.6,441.3,155.9,442.4,156.5z"/>
		<path class="st2" d="M467,166.1h-14.5c0.1,1.8,0.7,3.2,1.8,4.2c1.1,1,2.5,1.5,4,1.5c1.3,0,2.4-0.3,3.2-0.9s1.5-1.4,1.8-2.4h3.2
			c-0.5,1.7-1.5,3.2-2.9,4.2c-1.5,1.1-3.3,1.6-5.4,1.6c-1.7,0-3.3-0.4-4.6-1.2c-1.4-0.8-2.4-1.9-3.2-3.3c-0.8-1.4-1.2-3.1-1.2-4.9
			c0-1.9,0.4-3.5,1.1-4.9c0.7-1.4,1.8-2.5,3.2-3.3c1.4-0.8,2.9-1.1,4.7-1.1c1.7,0,3.2,0.4,4.6,1.1s2.3,1.8,3.1,3.1
			c0.7,1.3,1.1,2.8,1.1,4.4C467.1,164.9,467,165.5,467,166.1z M463.2,160.7c-0.5-0.8-1.2-1.5-2.1-1.9c-0.9-0.4-1.8-0.6-2.9-0.6
			c-1.5,0-2.8,0.5-3.9,1.5c-1.1,1-1.7,2.3-1.8,4H464C464,162.5,463.7,161.6,463.2,160.7z M461.5,150.8l-7,3.8v-2.2l7-4.1V150.8z"/>
		<path class="st2" d="M476,156.5c1-0.6,2.2-0.9,3.6-0.9v3.1h-0.8c-3.4,0-5,1.8-5,5.5v9.8h-3V156h3v2.9
			C474.3,157.9,475,157.1,476,156.5z"/>
		<path class="st2" d="M482.9,152.4c-0.4-0.4-0.6-0.9-0.6-1.5c0-0.6,0.2-1.1,0.6-1.5c0.4-0.4,0.9-0.6,1.5-0.6c0.5,0,1,0.2,1.4,0.6
			s0.6,0.9,0.6,1.5c0,0.6-0.2,1.1-0.6,1.5s-0.9,0.6-1.4,0.6C483.7,153,483.2,152.8,482.9,152.4z M485.8,156V174h-3V156H485.8z"/>
		<path class="st2" d="M490.6,160.1c0.7-1.4,1.8-2.5,3.1-3.3c1.3-0.8,2.8-1.2,4.4-1.2c1.6,0,2.9,0.3,4.1,1c1.2,0.7,2,1.5,2.6,2.6
			V156h3v26.7h-3v-11.9c-0.6,1-1.5,1.9-2.6,2.6c-1.2,0.7-2.6,1.1-4.2,1.1s-3-0.4-4.3-1.2c-1.3-0.8-2.3-1.9-3.1-3.3
			c-0.7-1.4-1.1-3.1-1.1-4.9C489.5,163.1,489.8,161.5,490.6,160.1z M503.9,161.4c-0.6-1-1.3-1.8-2.2-2.3c-0.9-0.5-2-0.8-3.1-0.8
			s-2.1,0.3-3.1,0.8c-0.9,0.5-1.7,1.3-2.2,2.3c-0.6,1-0.8,2.2-0.8,3.6c0,1.4,0.3,2.6,0.8,3.6c0.5,1,1.3,1.8,2.2,2.3
			c0.9,0.5,1.9,0.8,3.1,0.8s2.2-0.3,3.1-0.8c0.9-0.5,1.7-1.3,2.2-2.3c0.5-1,0.8-2.2,0.8-3.6C504.8,163.6,504.5,162.4,503.9,161.4z"
			/>
		<path class="st2" d="M528.6,156V174h-3v-2.7c-0.6,0.9-1.4,1.6-2.4,2.2c-1,0.5-2.2,0.8-3.4,0.8c-1.4,0-2.7-0.3-3.8-0.9
			s-2-1.5-2.7-2.6c-0.6-1.2-1-2.6-1-4.3V156h3v10.2c0,1.8,0.5,3.2,1.4,4.1c0.9,1,2.1,1.4,3.7,1.4c1.6,0,2.9-0.5,3.8-1.5
			c0.9-1,1.4-2.4,1.4-4.3V156H528.6z"/>
		<path class="st2" d="M549.8,166.1h-14.5c0.1,1.8,0.7,3.2,1.8,4.2c1.1,1,2.5,1.5,4,1.5c1.3,0,2.4-0.3,3.2-0.9s1.5-1.4,1.8-2.4h3.2
			c-0.5,1.7-1.5,3.2-2.9,4.2c-1.5,1.1-3.3,1.6-5.4,1.6c-1.7,0-3.3-0.4-4.6-1.2c-1.4-0.8-2.4-1.9-3.2-3.3c-0.8-1.4-1.2-3.1-1.2-4.9
			c0-1.9,0.4-3.5,1.1-4.9c0.7-1.4,1.8-2.5,3.2-3.3c1.4-0.8,2.9-1.1,4.7-1.1c1.7,0,3.2,0.4,4.6,1.1s2.3,1.8,3.1,3.1
			c0.7,1.3,1.1,2.8,1.1,4.4C549.9,164.9,549.9,165.5,549.8,166.1z M546,160.7c-0.5-0.8-1.2-1.5-2.1-1.9c-0.9-0.4-1.8-0.6-2.9-0.6
			c-1.5,0-2.8,0.5-3.9,1.5c-1.1,1-1.7,2.3-1.8,4h11.4C546.8,162.5,546.6,161.6,546,160.7z"/>
	</g>
	<path class="st1" d="M288,108.2l9.3-9.4l9.3,9.4l-9.3,9.4L288,108.2z M281.9,133.3L269.8,121c-1.5-1.6-4-1.6-5.5,0l-12.1,12.2
		l-9.9-10l12.1-12.2c1.5-1.6,1.5-4.1,0-5.6l-12.1-12.2l9.9-10l12.1,12.2c0.8,0.8,1.8,1.2,2.8,1.2c1,0,2-0.4,2.8-1.2l12.1-12.2
		l9.9,10l-12.1,12.2c-1.5,1.6-1.5,4.1,0,5.6l12.1,12.3C291.8,123.3,281.9,133.3,281.9,133.3z M267.1,148.3l-9.3-9.5l9.3-9.5l9.3,9.5
		L267.1,148.3z M227.5,108.2l9.3-9.4l9.3,9.4l-9.3,9.4L227.5,108.2z M267.1,68.2l9.3,9.4l-9.3,9.4l-9.3-9.4L267.1,68.2L267.1,68.2z
		 M317.3,108.2l13.3-13.5c1.5-1.6,1.5-4,0-5.6c-1.5-1.6-4-1.6-5.5,0l-13.1,13.3l-9.1-9.3l13-13.1c1.5-1.6,1.5-4.1,0-5.6
		c-1.5-1.6-4-1.6-5.5,0l-13,13.1l-9.9-10l13-13.2c1.5-1.5,1.5-4,0-5.6c-1.5-1.5-4-1.5-5.5,0l-13,13.2l-9.1-9.3l13.1-13.3
		c1.5-1.6,1.5-4.1,0-5.6c-1.5-1.5-4-1.5-5.5,0l-13.3,13.5l-13.3-13.5c-1.5-1.5-4-1.5-5.5,0c-1.5,1.6-1.5,4,0,5.6l13.1,13.3l-9.1,9.3
		l-13-13.2c-1.5-1.5-4-1.5-5.5,0c-1.5,1.6-1.5,4.1,0,5.6l13,13.2l-9.9,10l-13-13.2c-1.5-1.6-4-1.6-5.5,0s-1.5,4.1,0,5.6l13,13.1
		l-9.1,9.3l-13.1-13.3c-1.5-1.6-4-1.6-5.5,0c-1.5,1.5-1.5,4,0,5.6l13.3,13.5l-13.3,13.5c-1.5,1.5-1.5,4,0,5.6
		c0.8,0.8,1.8,1.2,2.8,1.2c1,0,2-0.4,2.8-1.2l13.1-13.3l9.1,9.2l-12.9,13.1c-1.5,1.6-1.5,4,0,5.6c0.8,0.8,1.8,1.2,2.8,1.2
		c1,0,2-0.4,2.8-1.2l12.9-13.1l9.9,10L233.7,152c-1.5,1.6-1.5,4.1,0,5.6c1.5,1.6,4,1.6,5.5,0l12.9-13.1l9.1,9.2L248.2,167
		c-1.5,1.6-1.5,4.1,0,5.6c1.5,1.6,4,1.6,5.5,0l13.3-13.5l13.3,13.5c0.8,0.8,1.8,1.2,2.8,1.2c1,0,2-0.4,2.8-1.2
		c1.5-1.6,1.5-4.1,0-5.6l-13.1-13.3l9.1-9.2l12.9,13.1c0.8,0.8,1.8,1.2,2.8,1.2c1,0,2-0.4,2.8-1.2c1.5-1.6,1.5-4.1,0-5.6l-12.9-13.1
		l9.9-10l12.9,13.1c0.8,0.8,1.8,1.2,2.8,1.2s2-0.4,2.8-1.2c1.5-1.6,1.5-4,0-5.6l-12.9-13.1l9.1-9.2l13.1,13.3
		c0.8,0.8,1.8,1.2,2.8,1.2c1,0,2-0.4,2.8-1.2c1.5-1.5,1.5-4,0-5.6L317.3,108.2L317.3,108.2z"/>
	<rect x="35.3" y="35.3" class="st1" width="142.1" height="142.1"/>
	<path class="st3" d="M62,89.4h-9.4c0.4,1.7,1.6,2.6,3.3,2.6c1.3,0,2.2-0.4,3.3-1.4l2.2,1.9c-1.3,1.6-3.1,2.5-5.5,2.5
		c-4,0-7-2.8-7-7v0c0-3.8,2.7-7,6.7-7c4.5,0,6.6,3.5,6.6,7.3v0.1C62,88.9,62,89.1,62,89.4z M55.5,84.2c-1.6,0-2.6,1.1-2.9,2.9h5.8
		C58.1,85.3,57.1,84.2,55.5,84.2z"/>
	<path class="st3" d="M81.6,94.9v-7.5c0-1.8-0.8-2.7-2.2-2.7s-2.3,0.9-2.3,2.7v7.5h-3.8v-7.5c0-1.8-0.8-2.7-2.2-2.7
		c-1.4,0-2.3,0.9-2.3,2.7v7.5h-3.8V81.4h3.8v1.9c0.9-1.1,2-2.2,4-2.2c1.8,0,3.1,0.8,3.8,2.1c1.2-1.4,2.6-2.1,4.4-2.1
		c2.8,0,4.6,1.7,4.6,5v8.8H81.6z"/>
	<path class="st3" d="M49.6,117.8V99.4h3.8v18.4H49.6z"/>
	<path class="st3" d="M64.7,118.1c-1,2.7-2.1,3.8-4.4,3.8c-1.4,0-2.4-0.4-3.4-0.9l1.3-2.8c0.5,0.3,1.1,0.5,1.6,0.5
		c0.7,0,1-0.2,1.3-0.9l-5.3-13.5h4l3.1,9.2l2.9-9.2h4L64.7,118.1z"/>
	<path class="st3" d="M78,118.1c-4.2,0-7.3-3.1-7.3-7v0c0-3.9,3.1-7,7.3-7c4.2,0,7.3,3.1,7.3,7v0.1C85.3,115,82.2,118.1,78,118.1z
		 M81.6,111.1c0-2-1.4-3.7-3.5-3.7c-2.2,0-3.5,1.7-3.5,3.7v0.1c0,2,1.4,3.7,3.5,3.7C80.3,114.8,81.6,113.1,81.6,111.1L81.6,111.1z"
		/>
	<path class="st3" d="M96.6,117.8v-7.5c0-1.8-0.9-2.7-2.3-2.7c-1.5,0-2.4,0.9-2.4,2.7v7.5h-3.8v-13.5h3.8v1.9c0.9-1.1,2-2.2,3.9-2.2
		c2.9,0,4.6,1.9,4.6,5v8.7H96.6z"/>
	<path class="st3" d="M56.8,141c-2.4,0-4-1.3-5-2.8v2.5h-1.9v-18.4h1.9v8c1.1-1.6,2.6-2.9,5-2.9c3.1,0,6.2,2.5,6.2,6.8
		C63.1,138.5,60,141,56.8,141z M56.5,129.2c-2.4,0-4.7,2-4.7,5c0,3,2.3,5.1,4.7,5.1c2.5,0,4.6-1.9,4.6-5
		C61.1,131.2,59,129.2,56.5,129.2z"/>
	<path class="st3" d="M75.9,127.8h1.9v13h-1.9v-2.3c-0.9,1.4-2.2,2.5-4.5,2.5c-3.1,0-5-2.1-5-5.2v-8.1h1.9v7.6
		c0,2.4,1.3,3.9,3.6,3.9c2.2,0,3.9-1.6,3.9-4.1V127.8z"/>
	<path class="st3" d="M86.4,141c-1.9,0-3.9-0.7-5.4-1.9l1-1.4c1.4,1.1,3,1.7,4.5,1.7c1.6,0,2.7-0.8,2.7-2.1v0c0-1.3-1.5-1.8-3.2-2.3
		c-2-0.6-4.3-1.3-4.3-3.7v-0.1c0-2.2,1.9-3.7,4.4-3.7c1.6,0,3.3,0.6,4.7,1.4l-0.9,1.5c-1.2-0.8-2.6-1.3-3.8-1.3
		c-1.5,0-2.5,0.8-2.5,1.9v0.1c0,1.2,1.6,1.7,3.3,2.2c2,0.6,4.2,1.4,4.2,3.7v0.1C91,139.6,89,141,86.4,141z"/>
	<path class="st3" d="M94.7,124.9v-2.1h2.2v2.1H94.7z M94.8,140.8v-13h1.9v13H94.8z"/>
	<path class="st3" d="M103.2,140.8h-1.9v-13h1.9v2.3c0.9-1.4,2.2-2.5,4.5-2.5c3.1,0,5,2.1,5,5.2v8.1h-1.9v-7.6
		c0-2.4-1.3-3.9-3.6-3.9c-2.2,0-3.9,1.6-3.9,4.1V140.8z"/>
	<path class="st3" d="M122.5,139.4c1.8,0,3-0.7,4.1-1.8l1.2,1.1c-1.3,1.5-2.9,2.4-5.4,2.4c-3.6,0-6.5-2.7-6.5-6.8
		c0-3.8,2.6-6.8,6.2-6.8c3.8,0,6.1,3.1,6.1,6.9c0,0.2,0,0.4,0,0.6h-10.3C118.2,137.8,120.2,139.4,122.5,139.4z M126.3,133.5
		c-0.2-2.4-1.6-4.4-4.1-4.4c-2.3,0-4,1.9-4.2,4.4H126.3z"/>
	<path class="st3" d="M136,141c-1.9,0-3.9-0.7-5.4-1.9l1-1.4c1.4,1.1,3,1.7,4.5,1.7c1.6,0,2.7-0.8,2.7-2.1v0c0-1.3-1.5-1.8-3.2-2.3
		c-2-0.6-4.3-1.3-4.3-3.7v-0.1c0-2.2,1.9-3.7,4.4-3.7c1.6,0,3.3,0.6,4.7,1.4l-0.9,1.5c-1.2-0.8-2.6-1.3-3.8-1.3
		c-1.5,0-2.5,0.8-2.5,1.9v0.1c0,1.2,1.6,1.7,3.3,2.2c2,0.6,4.2,1.4,4.2,3.7v0.1C140.6,139.6,138.5,141,136,141z"/>
	<path class="st3" d="M148,141c-1.9,0-3.9-0.7-5.4-1.9l1-1.4c1.4,1.1,3,1.7,4.5,1.7c1.6,0,2.7-0.8,2.7-2.1v0c0-1.3-1.5-1.8-3.2-2.3
		c-2-0.6-4.3-1.3-4.3-3.7v-0.1c0-2.2,1.9-3.7,4.4-3.7c1.6,0,3.3,0.6,4.7,1.4l-0.9,1.5c-1.2-0.8-2.6-1.3-3.8-1.3
		c-1.5,0-2.5,0.8-2.5,1.9v0.1c0,1.2,1.6,1.7,3.3,2.2c2,0.6,4.2,1.4,4.2,3.7v0.1C152.6,139.6,150.5,141,148,141z"/>
	<path class="st3" d="M54.2,164c-1.9,0-3.9-0.7-5.4-1.9l1-1.4c1.4,1.1,3,1.7,4.5,1.7c1.6,0,2.7-0.8,2.7-2.1v0c0-1.3-1.5-1.8-3.2-2.3
		c-2-0.6-4.3-1.3-4.3-3.7v-0.1c0-2.2,1.9-3.7,4.4-3.7c1.6,0,3.3,0.6,4.7,1.4l-0.9,1.5c-1.2-0.8-2.6-1.3-3.8-1.3
		c-1.5,0-2.5,0.8-2.5,1.9v0.1c0,1.2,1.6,1.7,3.3,2.2c2,0.6,4.2,1.4,4.2,3.7v0.1C58.9,162.5,56.8,164,54.2,164z"/>
	<path class="st3" d="M68.3,164c-3.8,0-6.7-3.1-6.7-6.8c0-3.7,2.9-6.8,6.7-6.8c2.5,0,4,1,5.2,2.3l-1.3,1.4c-1-1.1-2.2-2-3.9-2
		c-2.6,0-4.7,2.2-4.7,5.1c0,2.8,2.1,5.1,4.8,5.1c1.7,0,2.9-0.8,4-1.9l1.2,1.2C72.3,163,70.8,164,68.3,164z"/>
	<path class="st3" d="M78.8,163.7h-1.9v-18.4h1.9v7.6c0.9-1.4,2.2-2.5,4.5-2.5c3.1,0,5,2.1,5,5.2v8.1h-1.9v-7.6
		c0-2.4-1.3-3.9-3.6-3.9c-2.2,0-3.9,1.6-3.9,4.1V163.7z"/>
	<path class="st3" d="M98.2,164c-3.9,0-6.7-3.1-6.7-6.8s2.9-6.8,6.8-6.8c3.9,0,6.8,3.1,6.8,6.8S102.2,164,98.2,164z M98.2,152.1
		c-2.8,0-4.8,2.2-4.8,5.1s2.1,5.1,4.8,5.1c2.8,0,4.8-2.2,4.8-5C103.1,154.4,101,152.1,98.2,152.1z"/>
	<path class="st3" d="M114.5,164c-3.9,0-6.7-3.1-6.7-6.8s2.9-6.8,6.8-6.8c3.9,0,6.8,3.1,6.8,6.8S118.4,164,114.5,164z M114.5,152.1
		c-2.8,0-4.8,2.2-4.8,5.1s2.1,5.1,4.8,5.1c2.8,0,4.8-2.2,4.8-5C119.3,154.4,117.2,152.1,114.5,152.1z"/>
	<path class="st3" d="M125,163.7v-18.4h1.9v18.4H125z"/>
</g>
</svg>
