<?xml version="1.0" encoding="utf-8"?>
<!-- Generator: Adobe Illustrator 22.1.0, SVG Export Plug-In . SVG Version: 6.00 Build 0)  -->
<svg version="1.1" id="Calque_1" xmlns="http://www.w3.org/2000/svg" xmlns:xlink="http://www.w3.org/1999/xlink" x="0px" y="0px"
	 viewBox="0 0 233 100" style="enable-background:new 0 0 233 100;" xml:space="preserve">
<style type="text/css">
	.st0{fill:#E2001A;}
	.st1{fill:#5B5B5B;}
</style>
<g>
	<path class="st0" d="M117.7,11.4v14.3h-3.3V11.4H117.7z"/>
	<path class="st0" d="M119.9,17.4c0.4-0.8,1-1.5,1.7-1.9c0.7-0.5,1.5-0.7,2.4-0.7c0.8,0,1.4,0.2,2,0.5c0.6,0.3,1,0.7,1.3,1.2v-1.5
		h3.3v10.8h-3.3v-1.5c-0.3,0.5-0.8,0.9-1.3,1.2c-0.6,0.3-1.2,0.5-2,0.5c-0.9,0-1.7-0.2-2.4-0.7c-0.7-0.5-1.3-1.1-1.7-2
		c-0.4-0.8-0.6-1.8-0.6-2.9C119.2,19.2,119.5,18.2,119.9,17.4z M126.7,18.4c-0.5-0.5-1-0.7-1.7-0.7s-1.2,0.2-1.7,0.7
		c-0.5,0.5-0.7,1.1-0.7,1.9c0,0.8,0.2,1.5,0.7,2c0.5,0.5,1,0.7,1.7,0.7s1.2-0.2,1.7-0.7c0.5-0.5,0.7-1.1,0.7-2
		C127.3,19.5,127.1,18.9,126.7,18.4z"/>
	<path class="st0" d="M142.9,23v2.8h-1.7c-1.2,0-2.1-0.3-2.8-0.9c-0.7-0.6-1-1.5-1-2.9v-4.3H136v-2.8h1.3v-2.6h3.3v2.6h2.2v2.8h-2.2
		V22c0,0.3,0.1,0.6,0.2,0.7c0.2,0.1,0.4,0.2,0.8,0.2H142.9z"/>
	<path class="st0" d="M146.6,25.2c-0.8-0.5-1.5-1.1-2-1.9c-0.5-0.8-0.7-1.8-0.7-2.9c0-1.1,0.2-2.1,0.7-2.9c0.5-0.8,1.2-1.5,2-1.9
		c0.9-0.5,1.8-0.7,2.9-0.7c1.1,0,2,0.2,2.9,0.7c0.9,0.5,1.5,1.1,2,1.9c0.5,0.8,0.7,1.8,0.7,2.9c0,1.1-0.2,2.1-0.7,2.9
		c-0.5,0.8-1.2,1.5-2,1.9c-0.9,0.5-1.8,0.7-2.9,0.7S147.4,25.7,146.6,25.2z M151.1,22.4c0.4-0.5,0.7-1.1,0.7-2c0-0.9-0.2-1.5-0.6-2
		c-0.4-0.5-1-0.7-1.6-0.7c-0.6,0-1.2,0.2-1.6,0.7c-0.4,0.5-0.6,1.1-0.6,2c0,0.9,0.2,1.5,0.6,2c0.4,0.5,0.9,0.7,1.6,0.7
		S150.6,22.8,151.1,22.4z"/>
	<path class="st0" d="M156.9,13.3c-0.4-0.3-0.6-0.8-0.6-1.3c0-0.5,0.2-0.9,0.6-1.3c0.4-0.3,0.8-0.5,1.4-0.5c0.6,0,1,0.2,1.4,0.5
		c0.4,0.3,0.6,0.8,0.6,1.3c0,0.5-0.2,0.9-0.6,1.3c-0.4,0.3-0.8,0.5-1.4,0.5C157.8,13.8,157.3,13.6,156.9,13.3z M160,14.9v10.8h-3.3
		V14.9H160z"/>
	<path class="st0" d="M165.6,11.4v14.3h-3.3V11.4H165.6z"/>
	<path class="st0" d="M177.9,21.2h-7.5c0.1,0.7,0.3,1.2,0.6,1.5c0.4,0.4,0.8,0.5,1.4,0.5c0.8,0,1.4-0.3,1.7-1h3.5
		c-0.2,0.7-0.5,1.4-1,1.9c-0.5,0.6-1.1,1-1.8,1.3c-0.7,0.3-1.5,0.5-2.4,0.5c-1.1,0-2-0.2-2.8-0.7c-0.8-0.5-1.5-1.1-1.9-1.9
		c-0.5-0.8-0.7-1.8-0.7-2.9c0-1.1,0.2-2.1,0.7-2.9c0.5-0.8,1.1-1.5,1.9-1.9c0.8-0.5,1.8-0.7,2.9-0.7c1,0,2,0.2,2.8,0.7
		c0.8,0.4,1.5,1.1,1.9,1.9c0.5,0.8,0.7,1.8,0.7,2.9C178,20.5,178,20.8,177.9,21.2z M174.6,19.3c0-0.6-0.2-1-0.6-1.4
		c-0.4-0.3-0.9-0.5-1.5-0.5c-0.6,0-1,0.2-1.4,0.5c-0.4,0.3-0.6,0.8-0.7,1.4H174.6z"/>
	<path class="st1" d="M116.4,32.3v14.3h-1.8V32.3H116.4z"/>
	<path class="st1" d="M119.5,33.2h2l-1.9,4.4h-1.2L119.5,33.2z"/>
	<path class="st1" d="M133,42h-8.5c0.1,1,0.4,1.9,1.1,2.5c0.7,0.6,1.4,0.9,2.4,0.9c0.8,0,1.4-0.2,1.9-0.5c0.5-0.4,0.9-0.8,1.1-1.4
		h1.9c-0.3,1-0.9,1.9-1.7,2.5c-0.9,0.6-1.9,1-3.2,1c-1,0-1.9-0.2-2.7-0.7c-0.8-0.5-1.4-1.1-1.9-1.9c-0.5-0.8-0.7-1.8-0.7-2.9
		c0-1.1,0.2-2.1,0.7-2.9c0.4-0.8,1.1-1.5,1.9-1.9c0.8-0.4,1.7-0.7,2.7-0.7c1,0,1.9,0.2,2.7,0.7c0.8,0.4,1.4,1,1.8,1.8
		c0.4,0.8,0.6,1.6,0.6,2.6C133,41.3,133,41.7,133,42z M130.7,38.9c-0.3-0.5-0.7-0.9-1.2-1.1c-0.5-0.3-1.1-0.4-1.7-0.4
		c-0.9,0-1.7,0.3-2.3,0.9c-0.6,0.6-1,1.4-1.1,2.4h6.7C131.2,39.9,131,39.3,130.7,38.9z M129.7,33.1l-4.1,2.2v-1.3l4.1-2.4V33.1z"/>
	<path class="st1" d="M135.2,38.5c0.4-0.8,1.1-1.5,1.8-1.9c0.8-0.5,1.7-0.7,2.7-0.7c1.3,0,2.4,0.3,3.2,0.9c0.8,0.6,1.4,1.5,1.7,2.6
		h-1.9c-0.2-0.6-0.5-1.2-1.1-1.5c-0.5-0.4-1.2-0.6-1.9-0.6c-1,0-1.8,0.3-2.4,1c-0.6,0.7-0.9,1.7-0.9,2.9c0,1.3,0.3,2.3,0.9,3
		c0.6,0.7,1.4,1,2.4,1c0.8,0,1.4-0.2,1.9-0.5c0.5-0.4,0.9-0.9,1.1-1.6h1.9c-0.3,1.1-0.9,2-1.7,2.6c-0.9,0.7-1.9,1-3.2,1
		c-1,0-1.9-0.2-2.7-0.7c-0.8-0.5-1.4-1.1-1.8-1.9c-0.4-0.8-0.7-1.8-0.7-2.9C134.5,40.3,134.7,39.3,135.2,38.5z"/>
	<path class="st1" d="M148.7,46.2c-0.8-0.5-1.4-1.1-1.9-1.9c-0.5-0.8-0.7-1.8-0.7-2.9c0-1.1,0.2-2,0.7-2.9c0.5-0.8,1.1-1.5,1.9-1.9
		c0.8-0.4,1.7-0.7,2.7-0.7c1,0,1.9,0.2,2.7,0.7c0.8,0.4,1.5,1.1,1.9,1.9c0.5,0.8,0.7,1.8,0.7,2.9c0,1.1-0.2,2.1-0.7,2.9
		c-0.5,0.8-1.1,1.5-2,1.9c-0.8,0.5-1.7,0.7-2.8,0.7C150.4,46.9,149.5,46.6,148.7,46.2z M153.2,44.9c0.6-0.3,1-0.7,1.3-1.3
		c0.3-0.6,0.5-1.3,0.5-2.2c0-0.9-0.2-1.6-0.5-2.2c-0.3-0.6-0.8-1-1.3-1.3c-0.5-0.3-1.1-0.4-1.8-0.4c-0.6,0-1.2,0.1-1.8,0.4
		c-0.5,0.3-1,0.7-1.3,1.3c-0.3,0.6-0.5,1.3-0.5,2.2c0,0.9,0.2,1.6,0.5,2.2c0.3,0.6,0.7,1,1.3,1.3c0.5,0.3,1.1,0.4,1.7,0.4
		C152,45.3,152.6,45.2,153.2,44.9z"/>
	<path class="st1" d="M160.8,32.3v14.3H159V32.3H160.8z"/>
	<path class="st1" d="M173.2,42h-8.5c0.1,1,0.4,1.9,1.1,2.5c0.7,0.6,1.4,0.9,2.4,0.9c0.8,0,1.4-0.2,1.9-0.5c0.5-0.4,0.9-0.8,1.1-1.4
		h1.9c-0.3,1-0.9,1.9-1.7,2.5c-0.9,0.6-1.9,1-3.2,1c-1,0-1.9-0.2-2.7-0.7c-0.8-0.5-1.4-1.1-1.9-1.9c-0.5-0.8-0.7-1.8-0.7-2.9
		c0-1.1,0.2-2.1,0.7-2.9c0.4-0.8,1.1-1.5,1.9-1.9c0.8-0.4,1.7-0.7,2.7-0.7c1,0,1.9,0.2,2.7,0.7c0.8,0.4,1.4,1,1.8,1.8
		c0.4,0.8,0.6,1.6,0.6,2.6C173.3,41.3,173.3,41.7,173.2,42z M171,38.9c-0.3-0.5-0.7-0.9-1.2-1.1c-0.5-0.3-1.1-0.4-1.7-0.4
		c-0.9,0-1.7,0.3-2.3,0.9c-0.6,0.6-1,1.4-1.1,2.4h6.7C171.5,39.9,171.3,39.3,171,38.9z"/>
	<path class="st1" d="M180.4,38.5c0.4-0.8,1-1.5,1.8-1.9c0.8-0.5,1.6-0.7,2.6-0.7c0.8,0,1.6,0.2,2.3,0.6c0.7,0.4,1.3,0.9,1.6,1.5
		v-5.6h1.8v14.3h-1.8v-2c-0.3,0.6-0.9,1.2-1.6,1.6c-0.7,0.4-1.5,0.6-2.4,0.6c-0.9,0-1.8-0.2-2.6-0.7c-0.8-0.5-1.4-1.1-1.8-2
		c-0.4-0.8-0.7-1.8-0.7-2.9C179.8,40.2,180,39.3,180.4,38.5z M188.3,39.3c-0.3-0.6-0.8-1.1-1.3-1.4c-0.5-0.3-1.2-0.5-1.8-0.5
		c-0.7,0-1.3,0.2-1.8,0.5c-0.5,0.3-1,0.8-1.3,1.4c-0.3,0.6-0.5,1.3-0.5,2.1c0,0.8,0.2,1.5,0.5,2.1c0.3,0.6,0.8,1.1,1.3,1.4
		c0.5,0.3,1.1,0.5,1.8,0.5c0.7,0,1.3-0.2,1.8-0.5c0.5-0.3,1-0.8,1.3-1.4c0.3-0.6,0.5-1.3,0.5-2.1S188.6,39.9,188.3,39.3z"/>
	<path class="st1" d="M203,42h-8.5c0.1,1,0.4,1.9,1.1,2.5c0.7,0.6,1.4,0.9,2.4,0.9c0.8,0,1.4-0.2,1.9-0.5c0.5-0.4,0.9-0.8,1.1-1.4
		h1.9c-0.3,1-0.9,1.9-1.7,2.5c-0.9,0.6-1.9,1-3.2,1c-1,0-1.9-0.2-2.7-0.7c-0.8-0.5-1.4-1.1-1.9-1.9c-0.5-0.8-0.7-1.8-0.7-2.9
		c0-1.1,0.2-2.1,0.7-2.9c0.4-0.8,1.1-1.5,1.9-1.9c0.8-0.4,1.7-0.7,2.7-0.7c1,0,1.9,0.2,2.7,0.7c0.8,0.4,1.4,1,1.8,1.8
		c0.4,0.8,0.6,1.6,0.6,2.6C203.1,41.3,203,41.7,203,42z M200.8,38.9c-0.3-0.5-0.7-0.9-1.2-1.1c-0.5-0.3-1.1-0.4-1.7-0.4
		c-0.9,0-1.7,0.3-2.3,0.9c-0.6,0.6-1,1.4-1.1,2.4h6.7C201.2,39.9,201.1,39.3,200.8,38.9z"/>
	<path class="st1" d="M212,32.3v14.3h-1.8V32.3H212z"/>
	<path class="st1" d="M214.8,38.5c0.4-0.8,1-1.5,1.8-1.9c0.8-0.5,1.6-0.7,2.6-0.7c0.9,0,1.7,0.2,2.4,0.6c0.7,0.4,1.2,0.9,1.5,1.5
		v-1.9h1.8v10.6h-1.8v-2c-0.3,0.6-0.9,1.1-1.6,1.5c-0.7,0.4-1.5,0.6-2.4,0.6c-0.9,0-1.8-0.2-2.6-0.7c-0.8-0.5-1.4-1.1-1.8-2
		c-0.4-0.8-0.7-1.8-0.7-2.9C214.2,40.2,214.4,39.3,214.8,38.5z M222.7,39.3c-0.3-0.6-0.8-1.1-1.3-1.4c-0.5-0.3-1.2-0.5-1.8-0.5
		c-0.7,0-1.3,0.2-1.8,0.5c-0.5,0.3-1,0.8-1.3,1.4c-0.3,0.6-0.5,1.3-0.5,2.1c0,0.8,0.2,1.5,0.5,2.1c0.3,0.6,0.8,1.1,1.3,1.4
		c0.5,0.3,1.1,0.5,1.8,0.5c0.7,0,1.3-0.2,1.8-0.5c0.5-0.3,1-0.8,1.3-1.4c0.3-0.6,0.5-1.3,0.5-2.1S223,39.9,222.7,39.3z"/>
	<path class="st1" d="M114.6,59.4c0.4-0.8,1-1.5,1.8-1.9c0.8-0.5,1.6-0.7,2.6-0.7c0.9,0,1.7,0.2,2.4,0.6c0.7,0.4,1.2,0.9,1.5,1.5V57
		h1.8v15.7H123v-7c-0.3,0.6-0.9,1.1-1.6,1.5c-0.7,0.4-1.5,0.6-2.4,0.6s-1.8-0.2-2.5-0.7c-0.8-0.5-1.4-1.1-1.8-2
		c-0.4-0.8-0.7-1.8-0.7-2.9C114,61.2,114.2,60.2,114.6,59.4z M122.5,60.2c-0.3-0.6-0.8-1.1-1.3-1.4c-0.5-0.3-1.2-0.5-1.8-0.5
		s-1.3,0.2-1.8,0.5c-0.5,0.3-1,0.8-1.3,1.4c-0.3,0.6-0.5,1.3-0.5,2.1c0,0.8,0.2,1.5,0.5,2.1c0.3,0.6,0.8,1.1,1.3,1.4
		c0.5,0.3,1.1,0.5,1.8,0.5s1.3-0.2,1.8-0.5c0.5-0.3,1-0.8,1.3-1.4c0.3-0.6,0.5-1.3,0.5-2.1C123,61.5,122.8,60.8,122.5,60.2z"/>
	<path class="st1" d="M137,57v10.6h-1.8V66c-0.3,0.5-0.8,1-1.4,1.3c-0.6,0.3-1.3,0.5-2,0.5c-0.8,0-1.6-0.2-2.2-0.5
		c-0.7-0.3-1.2-0.9-1.6-1.5c-0.4-0.7-0.6-1.5-0.6-2.5V57h1.7v6c0,1,0.3,1.9,0.8,2.4c0.5,0.6,1.3,0.8,2.2,0.8c0.9,0,1.7-0.3,2.2-0.9
		c0.5-0.6,0.8-1.4,0.8-2.5V57H137z"/>
	<path class="st1" d="M139.8,59.4c0.4-0.8,1-1.5,1.8-1.9c0.8-0.5,1.6-0.7,2.6-0.7c0.9,0,1.7,0.2,2.4,0.6c0.7,0.4,1.2,0.9,1.5,1.5V57
		h1.8v10.6h-1.8v-2c-0.3,0.6-0.9,1.1-1.6,1.5c-0.7,0.4-1.5,0.6-2.4,0.6c-0.9,0-1.8-0.2-2.6-0.7c-0.8-0.5-1.4-1.1-1.8-2
		c-0.4-0.8-0.7-1.8-0.7-2.9C139.2,61.2,139.4,60.2,139.8,59.4z M147.7,60.2c-0.3-0.6-0.8-1.1-1.3-1.4c-0.5-0.3-1.2-0.5-1.8-0.5
		c-0.7,0-1.3,0.2-1.8,0.5c-0.5,0.3-1,0.8-1.3,1.4c-0.3,0.6-0.5,1.3-0.5,2.1c0,0.8,0.2,1.5,0.5,2.1c0.3,0.6,0.8,1.1,1.3,1.4
		c0.5,0.3,1.1,0.5,1.8,0.5c0.7,0,1.3-0.2,1.8-0.5c0.5-0.3,1-0.8,1.3-1.4c0.3-0.6,0.5-1.3,0.5-2.1C148.2,61.5,148,60.8,147.7,60.2z"
		/>
	<path class="st1" d="M154.5,53.3v14.3h-1.8V53.3H154.5z"/>
	<path class="st1" d="M157.4,54.9c-0.2-0.2-0.3-0.5-0.3-0.9s0.1-0.6,0.3-0.9c0.2-0.2,0.5-0.3,0.9-0.3c0.3,0,0.6,0.1,0.8,0.3
		c0.2,0.2,0.3,0.5,0.3,0.9s-0.1,0.6-0.3,0.9c-0.2,0.2-0.5,0.3-0.8,0.3C157.9,55.2,157.6,55.1,157.4,54.9z M159.1,57v10.6h-1.8V57
		H159.1z"/>
	<path class="st1" d="M166.3,58.4H164v9.2h-1.8v-9.2h-1.4V57h1.4v-0.8c0-1.2,0.3-2.1,0.9-2.6c0.6-0.5,1.6-0.8,3-0.8v1.5
		c-0.8,0-1.3,0.2-1.6,0.5c-0.3,0.3-0.5,0.8-0.5,1.5V57h2.2V58.4z"/>
	<path class="st1" d="M168.2,54.9c-0.2-0.2-0.3-0.5-0.3-0.9s0.1-0.6,0.3-0.9c0.2-0.2,0.5-0.3,0.9-0.3c0.3,0,0.6,0.1,0.8,0.3
		c0.2,0.2,0.3,0.5,0.3,0.9s-0.1,0.6-0.3,0.9c-0.2,0.2-0.5,0.3-0.8,0.3C168.7,55.2,168.4,55.1,168.2,54.9z M169.9,57v10.6h-1.8V57
		H169.9z"/>
	<path class="st1" d="M172.7,59.4c0.4-0.8,1.1-1.5,1.8-1.9c0.8-0.5,1.7-0.7,2.7-0.7c1.3,0,2.4,0.3,3.2,1c0.8,0.6,1.4,1.5,1.7,2.6
		h-1.9c-0.2-0.6-0.5-1.2-1.1-1.5c-0.5-0.4-1.2-0.6-1.9-0.6c-1,0-1.8,0.3-2.4,1c-0.6,0.7-0.9,1.7-0.9,2.9c0,1.3,0.3,2.3,0.9,3
		c0.6,0.7,1.4,1,2.4,1c0.8,0,1.4-0.2,1.9-0.5c0.5-0.4,0.9-0.9,1.1-1.6h1.9c-0.3,1.1-0.9,2-1.7,2.6c-0.9,0.7-1.9,1-3.2,1
		c-1,0-1.9-0.2-2.7-0.7c-0.8-0.5-1.4-1.1-1.8-1.9c-0.4-0.8-0.7-1.8-0.7-2.9C172.1,61.2,172.3,60.2,172.7,59.4z"/>
	<path class="st1" d="M184.3,59.4c0.4-0.8,1-1.5,1.8-1.9c0.8-0.5,1.6-0.7,2.6-0.7c0.9,0,1.7,0.2,2.4,0.6c0.7,0.4,1.2,0.9,1.5,1.5V57
		h1.8v10.6h-1.8v-2c-0.3,0.6-0.9,1.1-1.6,1.5c-0.7,0.4-1.5,0.6-2.4,0.6c-0.9,0-1.8-0.2-2.6-0.7c-0.8-0.5-1.4-1.1-1.8-2
		c-0.4-0.8-0.7-1.8-0.7-2.9C183.7,61.2,183.9,60.2,184.3,59.4z M192.2,60.2c-0.3-0.6-0.8-1.1-1.3-1.4c-0.5-0.3-1.2-0.5-1.8-0.5
		c-0.7,0-1.3,0.2-1.8,0.5c-0.5,0.3-1,0.8-1.3,1.4c-0.3,0.6-0.5,1.3-0.5,2.1c0,0.8,0.2,1.5,0.5,2.1c0.3,0.6,0.8,1.1,1.3,1.4
		c0.5,0.3,1.1,0.5,1.8,0.5c0.7,0,1.3-0.2,1.8-0.5c0.5-0.3,1-0.8,1.3-1.4c0.3-0.6,0.5-1.3,0.5-2.1C192.7,61.5,192.5,60.8,192.2,60.2z
		"/>
	<path class="st1" d="M199.4,58.4v6.3c0,0.5,0.1,0.9,0.3,1.1c0.2,0.2,0.6,0.3,1.1,0.3h1.3v1.5h-1.6c-1,0-1.7-0.2-2.2-0.7
		c-0.5-0.5-0.7-1.2-0.7-2.2v-6.3h-1.4V57h1.4v-2.7h1.8V57h2.8v1.5H199.4z"/>
	<path class="st1" d="M204.2,54.9c-0.2-0.2-0.3-0.5-0.3-0.9s0.1-0.6,0.3-0.9c0.2-0.2,0.5-0.3,0.9-0.3c0.3,0,0.6,0.1,0.8,0.3
		c0.2,0.2,0.3,0.5,0.3,0.9s-0.1,0.6-0.3,0.9c-0.2,0.2-0.5,0.3-0.8,0.3C204.7,55.2,204.4,55.1,204.2,54.9z M205.9,57v10.6h-1.8V57
		H205.9z"/>
	<path class="st1" d="M210.7,67.1c-0.8-0.5-1.4-1.1-1.9-1.9c-0.5-0.8-0.7-1.8-0.7-2.9c0-1.1,0.2-2,0.7-2.9c0.5-0.8,1.1-1.5,1.9-1.9
		c0.8-0.4,1.7-0.7,2.7-0.7c1,0,1.9,0.2,2.7,0.7c0.8,0.4,1.5,1.1,1.9,1.9c0.5,0.8,0.7,1.8,0.7,2.9c0,1.1-0.2,2.1-0.7,2.9
		c-0.5,0.8-1.1,1.5-2,1.9c-0.8,0.5-1.7,0.7-2.8,0.7C212.4,67.8,211.5,67.5,210.7,67.1z M215.2,65.8c0.6-0.3,1-0.7,1.3-1.3
		c0.3-0.6,0.5-1.3,0.5-2.2c0-0.9-0.2-1.6-0.5-2.2c-0.3-0.6-0.8-1-1.3-1.3s-1.1-0.4-1.8-0.4c-0.6,0-1.2,0.1-1.8,0.4
		c-0.5,0.3-1,0.7-1.3,1.3c-0.3,0.6-0.5,1.3-0.5,2.2c0,0.9,0.2,1.6,0.5,2.2c0.3,0.6,0.7,1,1.3,1.3c0.5,0.3,1.1,0.4,1.7,0.4
		C214,66.2,214.6,66.1,215.2,65.8z"/>
	<path class="st1" d="M229.3,58c0.8,0.8,1.2,1.9,1.2,3.4v6.3h-1.7v-6c0-1.1-0.3-1.9-0.8-2.4c-0.5-0.6-1.3-0.8-2.2-0.8
		c-0.9,0-1.7,0.3-2.2,0.9c-0.5,0.6-0.8,1.4-0.8,2.5v5.9H221V57h1.8v1.5c0.3-0.5,0.8-1,1.4-1.3c0.6-0.3,1.3-0.4,2-0.4
		C227.4,56.8,228.5,57.2,229.3,58z"/>
	<path class="st1" d="M123,78.9c0.8,0.8,1.2,1.9,1.2,3.4v6.3h-1.7v-6c0-1.1-0.3-1.9-0.8-2.4c-0.5-0.6-1.3-0.8-2.2-0.8
		c-0.9,0-1.7,0.3-2.2,0.9c-0.5,0.6-0.8,1.4-0.8,2.5v5.9h-1.8V77.9h1.8v1.5c0.3-0.5,0.8-1,1.4-1.3c0.6-0.3,1.3-0.4,2-0.4
		C121.1,77.7,122.2,78.1,123,78.9z"/>
	<path class="st1" d="M136.3,77.9v10.6h-1.8v-1.6c-0.3,0.5-0.8,1-1.4,1.3c-0.6,0.3-1.3,0.5-2,0.5c-0.8,0-1.6-0.2-2.2-0.5
		c-0.7-0.3-1.2-0.9-1.6-1.5c-0.4-0.7-0.6-1.5-0.6-2.5v-6.2h1.7v6c0,1,0.3,1.9,0.8,2.4c0.5,0.6,1.3,0.8,2.2,0.8
		c0.9,0,1.7-0.3,2.2-0.9c0.5-0.6,0.8-1.4,0.8-2.5v-5.8H136.3z"/>
	<path class="st1" d="M154.1,78.2c0.6,0.3,1.2,0.9,1.5,1.5c0.4,0.7,0.6,1.5,0.6,2.5v6.3h-1.7v-6c0-1.1-0.3-1.9-0.8-2.4
		c-0.5-0.6-1.2-0.8-2.1-0.8c-0.9,0-1.6,0.3-2.2,0.9c-0.5,0.6-0.8,1.4-0.8,2.5v5.9h-1.7v-6c0-1.1-0.3-1.9-0.8-2.4
		c-0.5-0.6-1.2-0.8-2.1-0.8c-0.9,0-1.6,0.3-2.2,0.9c-0.5,0.6-0.8,1.4-0.8,2.5v5.9h-1.8V77.9h1.8v1.5c0.3-0.6,0.8-1,1.4-1.3
		c0.6-0.3,1.2-0.4,1.9-0.4c0.9,0,1.7,0.2,2.4,0.6c0.7,0.4,1.2,1,1.5,1.8c0.3-0.7,0.8-1.3,1.5-1.7c0.7-0.4,1.4-0.6,2.3-0.6
		C152.7,77.7,153.5,77.9,154.1,78.2z"/>
	<path class="st1" d="M168.6,83.9h-8.5c0.1,1,0.4,1.9,1.1,2.5c0.7,0.6,1.4,0.9,2.4,0.9c0.8,0,1.4-0.2,1.9-0.5
		c0.5-0.4,0.9-0.8,1.1-1.4h1.9c-0.3,1-0.9,1.9-1.7,2.5c-0.9,0.6-1.9,1-3.2,1c-1,0-1.9-0.2-2.7-0.7c-0.8-0.5-1.4-1.1-1.9-1.9
		c-0.5-0.8-0.7-1.8-0.7-2.9c0-1.1,0.2-2.1,0.7-2.9c0.4-0.8,1.1-1.5,1.9-1.9c0.8-0.4,1.7-0.7,2.7-0.7c1,0,1.9,0.2,2.7,0.7
		c0.8,0.4,1.4,1,1.8,1.8c0.4,0.8,0.6,1.6,0.6,2.6C168.6,83.1,168.6,83.5,168.6,83.9z M166.3,80.7c-0.3-0.5-0.7-0.9-1.2-1.1
		s-1.1-0.4-1.7-0.4c-0.9,0-1.7,0.3-2.3,0.9c-0.6,0.6-1,1.4-1.1,2.4h6.7C166.8,81.8,166.6,81.2,166.3,80.7z M165.3,74.9l-4.1,2.2
		v-1.3l4.1-2.4V74.9z"/>
	<path class="st1" d="M173.9,78.2c0.6-0.3,1.3-0.5,2.1-0.5v1.8h-0.5c-2,0-3,1.1-3,3.2v5.8h-1.8V77.9h1.8v1.7
		C172.8,79,173.3,78.5,173.9,78.2z"/>
	<path class="st1" d="M177.9,75.8c-0.2-0.2-0.3-0.5-0.3-0.9c0-0.3,0.1-0.6,0.3-0.9c0.2-0.2,0.5-0.3,0.9-0.3c0.3,0,0.6,0.1,0.8,0.3
		c0.2,0.2,0.3,0.5,0.3,0.9c0,0.3-0.1,0.6-0.3,0.9c-0.2,0.2-0.5,0.3-0.8,0.3C178.4,76.2,178.1,76,177.9,75.8z M179.6,77.9v10.6h-1.8
		V77.9H179.6z"/>
	<path class="st1" d="M182.4,80.3c0.4-0.8,1-1.5,1.8-1.9c0.8-0.5,1.6-0.7,2.6-0.7c0.9,0,1.7,0.2,2.4,0.6c0.7,0.4,1.2,0.9,1.5,1.5
		v-1.9h1.8v15.7h-1.8v-7c-0.3,0.6-0.9,1.1-1.6,1.5c-0.7,0.4-1.5,0.6-2.4,0.6c-0.9,0-1.8-0.2-2.5-0.7c-0.8-0.5-1.4-1.1-1.8-2
		c-0.4-0.8-0.7-1.8-0.7-2.9C181.8,82.1,182,81.1,182.4,80.3z M190.3,81.1c-0.3-0.6-0.8-1.1-1.3-1.4c-0.5-0.3-1.2-0.5-1.8-0.5
		s-1.3,0.2-1.8,0.5c-0.5,0.3-1,0.8-1.3,1.4c-0.3,0.6-0.5,1.3-0.5,2.1c0,0.8,0.2,1.5,0.5,2.1c0.3,0.6,0.8,1.1,1.3,1.4
		c0.5,0.3,1.1,0.5,1.8,0.5s1.3-0.2,1.8-0.5c0.5-0.3,1-0.8,1.3-1.4c0.3-0.6,0.5-1.3,0.5-2.1C190.8,82.4,190.6,81.7,190.3,81.1z"/>
	<path class="st1" d="M204.8,77.9v10.6H203v-1.6c-0.3,0.5-0.8,1-1.4,1.3c-0.6,0.3-1.3,0.5-2,0.5c-0.8,0-1.6-0.2-2.2-0.5
		c-0.7-0.3-1.2-0.9-1.6-1.5c-0.4-0.7-0.6-1.5-0.6-2.5v-6.2h1.7v6c0,1,0.3,1.9,0.8,2.4c0.5,0.6,1.3,0.8,2.2,0.8
		c0.9,0,1.7-0.3,2.2-0.9c0.5-0.6,0.8-1.4,0.8-2.5v-5.8H204.8z"/>
	<path class="st1" d="M217.2,83.9h-8.5c0.1,1,0.4,1.9,1.1,2.5c0.7,0.6,1.4,0.9,2.4,0.9c0.8,0,1.4-0.2,1.9-0.5
		c0.5-0.4,0.9-0.8,1.1-1.4h1.9c-0.3,1-0.9,1.9-1.7,2.5c-0.9,0.6-1.9,1-3.2,1c-1,0-1.9-0.2-2.7-0.7c-0.8-0.5-1.4-1.1-1.9-1.9
		c-0.5-0.8-0.7-1.8-0.7-2.9c0-1.1,0.2-2.1,0.7-2.9c0.4-0.8,1.1-1.5,1.9-1.9c0.8-0.4,1.7-0.7,2.7-0.7c1,0,1.9,0.2,2.7,0.7
		s1.4,1,1.8,1.8c0.4,0.8,0.6,1.6,0.6,2.6C217.3,83.1,217.3,83.5,217.2,83.9z M215,80.7c-0.3-0.5-0.7-0.9-1.2-1.1s-1.1-0.4-1.7-0.4
		c-0.9,0-1.7,0.3-2.3,0.9c-0.6,0.6-1,1.4-1.1,2.4h6.7C215.5,81.8,215.3,81.2,215,80.7z"/>
</g>
<g>
	<path class="st0" d="M69.9,50.2L76,44l6.1,6.2L76,56.4L69.9,50.2z M65.9,66.6l-7.9-8c-1-1-2.6-1-3.6,0l-7.9,8L40,60.1l7.9-8
		c1-1,1-2.7,0-3.7l-7.9-8l6.5-6.6l7.9,8c0.5,0.5,1.2,0.8,1.8,0.8s1.3-0.3,1.8-0.8l7.9-8l6.5,6.6l-7.9,8c-1,1-1,2.7,0,3.7l7.9,8
		C72.4,60.1,65.9,66.6,65.9,66.6z M56.2,76.5l-6.1-6.2l6.1-6.2l6.1,6.2L56.2,76.5z M30.3,50.2l6.1-6.2l6.1,6.2l-6.1,6.2L30.3,50.2z
		 M56.2,24l6.1,6.2l-6.1,6.2l-6.1-6.2L56.2,24L56.2,24z M89.1,50.2l8.7-8.9c1-1,1-2.7,0-3.7c-1-1-2.6-1-3.6,0l-8.6,8.7l-6-6.1
		l8.5-8.6c1-1,1-2.7,0-3.7c-1-1-2.6-1-3.6,0L76,36.7l-6.5-6.6l8.5-8.6c1-1,1-2.7,0-3.7c-1-1-2.6-1-3.6,0l-8.5,8.6l-6-6.1l8.6-8.7
		c1-1,1-2.7,0-3.7c-1-1-2.6-1-3.6,0l-8.7,8.9L47.5,8c-1-1-2.6-1-3.6,0c-1,1-1,2.7,0,3.7l8.6,8.7l-6,6.1L38,17.8c-1-1-2.6-1-3.6,0
		c-1,1-1,2.7,0,3.7l8.5,8.6l-6.5,6.6l-8.5-8.6c-1-1-2.6-1-3.6,0s-1,2.7,0,3.7l8.5,8.6l-6,6.1l-8.6-8.7c-1-1-2.6-1-3.6,0
		c-1,1-1,2.6,0,3.7l8.7,8.9l-8.7,8.9c-1,1-1,2.7,0,3.7c0.5,0.5,1.2,0.8,1.8,0.8c0.7,0,1.3-0.3,1.8-0.8l8.6-8.7l6,6.1l-8.5,8.6
		c-1,1-1,2.7,0,3.7c0.5,0.5,1.2,0.8,1.8,0.8c0.7,0,1.3-0.3,1.8-0.8l8.5-8.6l6.5,6.6l-8.5,8.6c-1,1-1,2.7,0,3.7c1,1,2.6,1,3.6,0
		l8.5-8.6l6,6.1l-8.6,8.7c-1,1-1,2.7,0,3.7c1,1,2.6,1,3.6,0l8.7-8.9l8.7,8.9c0.5,0.5,1.2,0.8,1.8,0.8c0.7,0,1.3-0.3,1.8-0.8
		c1-1,1-2.7,0-3.7L60,80l6-6.1l8.5,8.6c0.5,0.5,1.2,0.8,1.8,0.8c0.7,0,1.3-0.3,1.8-0.8c1-1,1-2.7,0-3.7l-8.5-8.6l6.5-6.6l8.5,8.6
		c0.5,0.5,1.2,0.8,1.8,0.8s1.3-0.3,1.8-0.8c1-1,1-2.7,0-3.7l-8.5-8.6l6-6.1l8.6,8.7c0.5,0.5,1.2,0.8,1.8,0.8c0.7,0,1.3-0.3,1.8-0.8
		c1-1,1-2.7,0-3.7L89.1,50.2L89.1,50.2z"/>
</g>
</svg>
