<?xml version="1.0" encoding="utf-8"?>
<!-- Generator: Adobe Illustrator 22.1.0, SVG Export Plug-In . SVG Version: 6.00 Build 0)  -->
<svg version="1.1" id="Calque_1" xmlns="http://www.w3.org/2000/svg" xmlns:xlink="http://www.w3.org/1999/xlink" x="0px" y="0px"
	 viewBox="0 0 100 100" style="enable-background:new 0 0 100 100;" xml:space="preserve">
<style type="text/css">
	.st0{fill:#E2001A;}
	.st1{fill:#FFFFFF;}
</style>
<g>
	<rect x="0" class="st0" width="100" height="100"/>
	<path class="st1" d="M18.8,38.1h-6.6c0.3,1.2,1.1,1.9,2.3,1.9c0.9,0,1.6-0.3,2.3-1l1.5,1.4c-0.9,1.1-2.2,1.8-3.9,1.8
		c-2.9,0-5-2-5-4.9v0c0-2.7,1.9-4.9,4.7-4.9c3.2,0,4.6,2.5,4.6,5.2v0C18.8,37.7,18.8,37.9,18.8,38.1z M14.2,34.4
		c-1.1,0-1.8,0.8-2.1,2h4.1C16,35.2,15.3,34.4,14.2,34.4z"/>
	<path class="st1" d="M32.6,41.9v-5.3c0-1.3-0.6-1.9-1.6-1.9c-1,0-1.6,0.7-1.6,1.9v5.3h-2.7v-5.3c0-1.3-0.6-1.9-1.6-1.9
		c-1,0-1.6,0.7-1.6,1.9v5.3h-2.7v-9.5h2.7v1.3c0.6-0.8,1.4-1.5,2.8-1.5c1.2,0,2.2,0.5,2.7,1.5c0.8-1,1.8-1.5,3.1-1.5
		c2,0,3.2,1.2,3.2,3.5v6.2H32.6z"/>
	<path class="st1" d="M10.1,58.1V45.1h2.7v12.9H10.1z"/>
	<path class="st1" d="M20.7,58.3c-0.7,1.9-1.5,2.7-3.1,2.7c-1,0-1.7-0.2-2.4-0.7l0.9-1.9c0.4,0.2,0.8,0.4,1.2,0.4
		c0.5,0,0.7-0.1,0.9-0.6l-3.7-9.5h2.9l2.2,6.5l2.1-6.5h2.8L20.7,58.3z"/>
	<path class="st1" d="M30,58.3c-2.9,0-5.1-2.2-5.1-4.9v0c0-2.7,2.2-4.9,5.2-4.9c2.9,0,5.1,2.2,5.1,4.9v0C35.2,56.1,33,58.3,30,58.3z
		 M32.5,53.3c0-1.4-1-2.6-2.5-2.6c-1.5,0-2.5,1.2-2.5,2.6v0c0,1.4,1,2.6,2.5,2.6C31.6,56,32.5,54.8,32.5,53.3L32.5,53.3z"/>
	<path class="st1" d="M43.1,58.1v-5.3c0-1.3-0.6-1.9-1.6-1.9c-1,0-1.7,0.7-1.7,1.9v5.3h-2.7v-9.5h2.7v1.3c0.6-0.8,1.4-1.5,2.8-1.5
		c2,0,3.2,1.3,3.2,3.5v6.1H43.1z"/>
	<path class="st1" d="M15.1,74.4c-1.7,0-2.8-0.9-3.5-1.9v1.8h-1.4V61.3h1.4v5.6c0.7-1.1,1.8-2,3.5-2c2.2,0,4.4,1.7,4.4,4.8
		C19.5,72.6,17.3,74.4,15.1,74.4z M14.9,66.1c-1.7,0-3.3,1.4-3.3,3.5c0,2.1,1.6,3.6,3.3,3.6c1.8,0,3.2-1.3,3.2-3.5
		C18.1,67.5,16.6,66.1,14.9,66.1z"/>
	<path class="st1" d="M28.5,65.1h1.3v9.2h-1.3v-1.6c-0.6,1-1.6,1.8-3.1,1.8c-2.2,0-3.5-1.5-3.5-3.7v-5.7h1.4v5.3
		c0,1.7,0.9,2.8,2.5,2.8c1.6,0,2.7-1.2,2.7-2.9V65.1z"/>
	<path class="st1" d="M36,74.4c-1.3,0-2.8-0.5-3.8-1.3l0.7-1c1,0.7,2.1,1.2,3.2,1.2c1.1,0,1.9-0.6,1.9-1.5v0c0-0.9-1.1-1.3-2.3-1.6
		c-1.4-0.4-3-0.9-3-2.6v0c0-1.6,1.3-2.6,3.1-2.6c1.1,0,2.4,0.4,3.3,1l-0.6,1c-0.8-0.5-1.8-0.9-2.7-0.9c-1.1,0-1.8,0.6-1.8,1.3v0
		c0,0.9,1.1,1.2,2.4,1.6c1.4,0.4,2.9,1,2.9,2.6v0C39.2,73.4,37.8,74.4,36,74.4z"/>
	<path class="st1" d="M41.8,63.1v-1.5h1.6v1.5H41.8z M41.9,74.2v-9.2h1.4v9.2H41.9z"/>
	<path class="st1" d="M47.8,74.2h-1.4v-9.2h1.4v1.6c0.6-1,1.6-1.8,3.1-1.8c2.2,0,3.5,1.5,3.5,3.7v5.7H53v-5.3c0-1.7-0.9-2.8-2.5-2.8
		c-1.6,0-2.7,1.2-2.7,2.9V74.2z"/>
	<path class="st1" d="M61.3,73.2c1.3,0,2.1-0.5,2.9-1.3l0.8,0.8c-0.9,1-2,1.7-3.8,1.7c-2.5,0-4.6-1.9-4.6-4.8c0-2.7,1.9-4.8,4.4-4.8
		c2.7,0,4.3,2.2,4.3,4.9c0,0.1,0,0.3,0,0.4h-7.3C58.3,72.1,59.7,73.2,61.3,73.2z M64,69.1c-0.1-1.7-1.1-3.1-2.9-3.1
		c-1.6,0-2.8,1.3-3,3.1H64z"/>
	<path class="st1" d="M70.8,74.4c-1.3,0-2.8-0.5-3.8-1.3l0.7-1c1,0.7,2.1,1.2,3.2,1.2c1.1,0,1.9-0.6,1.9-1.5v0
		c0-0.9-1.1-1.3-2.3-1.6c-1.4-0.4-3-0.9-3-2.6v0c0-1.6,1.3-2.6,3.1-2.6c1.1,0,2.4,0.4,3.3,1l-0.6,1c-0.8-0.5-1.8-0.9-2.7-0.9
		c-1.1,0-1.8,0.6-1.8,1.3v0c0,0.9,1.1,1.2,2.4,1.6c1.4,0.4,2.9,1,2.9,2.6v0C74.1,73.4,72.6,74.4,70.8,74.4z"/>
	<path class="st1" d="M79.3,74.4c-1.3,0-2.8-0.5-3.8-1.3l0.7-1c1,0.7,2.1,1.2,3.2,1.2c1.1,0,1.9-0.6,1.9-1.5v0
		c0-0.9-1.1-1.3-2.3-1.6c-1.4-0.4-3-0.9-3-2.6v0c0-1.6,1.3-2.6,3.1-2.6c1.1,0,2.4,0.4,3.3,1l-0.6,1c-0.8-0.5-1.8-0.9-2.7-0.9
		c-1.1,0-1.8,0.6-1.8,1.3v0c0,0.9,1.1,1.2,2.4,1.6c1.4,0.4,2.9,1,2.9,2.6v0C82.5,73.4,81.1,74.4,79.3,74.4z"/>
	<path class="st1" d="M13.3,90.6c-1.3,0-2.8-0.5-3.8-1.3l0.7-1c1,0.7,2.1,1.2,3.2,1.2c1.1,0,1.9-0.6,1.9-1.5v0
		c0-0.9-1.1-1.3-2.3-1.6c-1.4-0.4-3-0.9-3-2.6v0c0-1.6,1.3-2.6,3.1-2.6c1.1,0,2.4,0.4,3.3,1l-0.6,1c-0.8-0.5-1.8-0.9-2.7-0.9
		c-1.1,0-1.8,0.6-1.8,1.3v0c0,0.9,1.1,1.2,2.4,1.6c1.4,0.4,2.9,1,2.9,2.6v0C16.5,89.5,15.1,90.6,13.3,90.6z"/>
	<path class="st1" d="M23.2,90.6c-2.7,0-4.7-2.2-4.7-4.8c0-2.6,2-4.8,4.7-4.8c1.7,0,2.8,0.7,3.7,1.6l-0.9,1
		c-0.7-0.8-1.5-1.4-2.8-1.4c-1.9,0-3.3,1.6-3.3,3.6c0,2,1.5,3.6,3.4,3.6c1.2,0,2.1-0.6,2.8-1.4l0.9,0.8C26,89.8,24.9,90.6,23.2,90.6
		z"/>
	<path class="st1" d="M30.6,90.4h-1.4V77.5h1.4v5.4c0.6-1,1.6-1.8,3.1-1.8c2.2,0,3.5,1.5,3.5,3.7v5.7h-1.4V85c0-1.7-0.9-2.8-2.5-2.8
		c-1.6,0-2.7,1.2-2.7,2.9V90.4z"/>
	<path class="st1" d="M44.3,90.6c-2.7,0-4.7-2.2-4.7-4.8c0-2.6,2-4.8,4.8-4.8c2.7,0,4.8,2.2,4.8,4.8C49.1,88.4,47,90.6,44.3,90.6z
		 M44.3,82.2c-2,0-3.3,1.6-3.3,3.6s1.5,3.6,3.4,3.6c2,0,3.4-1.6,3.4-3.5C47.7,83.8,46.2,82.2,44.3,82.2z"/>
	<path class="st1" d="M55.7,90.6c-2.7,0-4.7-2.2-4.7-4.8c0-2.6,2-4.8,4.8-4.8c2.7,0,4.8,2.2,4.8,4.8C60.5,88.4,58.5,90.6,55.7,90.6z
		 M55.7,82.2c-2,0-3.3,1.6-3.3,3.6s1.5,3.6,3.4,3.6c2,0,3.4-1.6,3.4-3.5C59.1,83.8,57.6,82.2,55.7,82.2z"/>
	<path class="st1" d="M63.1,90.4V77.5h1.4v12.9H63.1z"/>
</g>
</svg>
